<svg xmlns="http://www.w3.org/2000/svg" xmlns:xlink="http://www.w3.org/1999/xlink" width="1080" zoomAndPan="magnify" viewBox="0 0 810 809.999993" height="1080" preserveAspectRatio="xMidYMid meet" version="1.0"><defs><clipPath id="697b388d18"><path d="M 171.476562 210 L 483 210 L 483 710.953125 L 171.476562 710.953125 Z M 171.476562 210 " clip-rule="nonzero"/></clipPath><clipPath id="5431565edf"><path d="M 72.109375 74 L 502 74 L 502 384 L 72.109375 384 Z M 72.109375 74 " clip-rule="nonzero"/></clipPath></defs><path fill="#ff0057" d="M 687.695312 185.070312 L 703.183594 221.519531 L 737.886719 221.519531 L 712.769531 246.011719 L 718.710938 280.558594 L 687.695312 264.21875 L 656.640625 280.558594 L 662.582031 246.011719 L 637.507812 221.519531 L 672.167969 221.519531 L 687.695312 185.070312 " fill-opacity="1" fill-rule="nonzero"/><path fill="#0058ca" d="M 575.59375 86.320312 L 586.035156 110.894531 L 609.441406 110.894531 L 592.519531 127.390625 L 596.515625 150.640625 L 575.59375 139.65625 L 554.710938 150.640625 L 558.671875 127.390625 L 541.785156 110.894531 L 565.152344 110.894531 L 575.59375 86.320312 " fill-opacity="1" fill-rule="nonzero"/><path fill="#ff0057" d="M 504.910156 270.777344 L 511.78125 286.925781 L 527.113281 286.925781 L 516.011719 297.714844 L 518.648438 313.007812 L 504.910156 305.789062 L 491.207031 313.007812 L 493.847656 297.714844 L 482.746094 286.925781 L 498.078125 286.925781 L 504.910156 270.777344 " fill-opacity="1" fill-rule="nonzero"/><g clip-path="url(#697b388d18)"><path fill="#ff0057" d="M 212 425.5 C 189.796875 555.765625 272.476562 679.746094 398.746094 710.953125 C 392.613281 710.371094 386.402344 709.558594 380.191406 708.46875 C 243.714844 685.257812 151.875 555.6875 175.125 419.210938 C 198.378906 282.734375 327.90625 190.855469 464.386719 214.105469 C 470.597656 215.191406 476.730469 216.472656 482.746094 217.949219 C 353.253906 205.605469 234.203125 295.191406 212 425.5 " fill-opacity="1" fill-rule="evenodd"/></g><path fill="#0058ca" d="M 591.003906 618.804688 C 384.617188 736.339844 180.910156 448.984375 360.125 293.136719 C 354.378906 296.433594 348.710938 300.007812 343.199219 303.925781 C 252.835938 368.011719 231.488281 493.234375 295.535156 583.597656 C 359.621094 673.960938 484.839844 695.273438 575.207031 631.226562 C 580.71875 627.304688 585.996094 623.152344 591.003906 618.804688 " fill-opacity="1" fill-rule="evenodd"/><g clip-path="url(#5431565edf)"><path fill="#0058ca" d="M 439 145.75 L 451.460938 175.832031 C 441.640625 174.785156 431.816406 174.28125 422.035156 174.28125 C 355.078125 174.28125 289.789062 198.074219 238.164062 241.238281 C 221.007812 255.5625 205.753906 271.746094 192.515625 289.410156 L 179.472656 257.851562 L 177.84375 253.929688 L 165.1875 253.039062 L 123.964844 250.089844 L 94.582031 247.992188 L 93.417969 247.914062 L 93.417969 335.328125 C 96.445312 337.113281 98.503906 340.375 98.503906 344.101562 C 98.503906 347.285156 97.027344 350.15625 94.699219 351.980469 C 94.308594 352.332031 93.882812 352.640625 93.417969 352.875 L 93.417969 362.460938 L 104.09375 383.808594 L 72.109375 383.808594 L 82.589844 362.847656 L 82.589844 353.457031 C 79.558594 351.710938 77.503906 348.449219 77.503906 344.683594 C 77.503906 341.152344 79.289062 338.046875 82.042969 336.222656 C 82.238281 336.066406 82.394531 335.910156 82.589844 335.792969 C 82.820312 335.640625 83.015625 335.484375 83.285156 335.328125 L 83.285156 247.214844 L 258.851562 80.1875 L 456.429688 75.257812 L 501.105469 74.132812 L 439 145.75 " fill-opacity="1" fill-rule="evenodd"/></g></svg>