<svg xmlns="http://www.w3.org/2000/svg" xmlns:xlink="http://www.w3.org/1999/xlink" width="1080" zoomAndPan="magnify" viewBox="0 0 810 809.999993" height="1080" preserveAspectRatio="xMidYMid meet" version="1.0"><defs><clipPath id="f7a7d0724d"><path d="M 67.457031 112 L 450 112 L 450 552 L 67.457031 552 Z M 67.457031 112 " clip-rule="nonzero"/></clipPath><clipPath id="dc10bde720"><path d="M 78 67.457031 L 742.457031 67.457031 L 742.457031 451 L 78 451 Z M 78 67.457031 " clip-rule="nonzero"/></clipPath><clipPath id="d1e2aab5c1"><path d="M 404 517 L 563 517 L 563 742.457031 L 404 742.457031 Z M 404 517 " clip-rule="nonzero"/></clipPath><clipPath id="e4e3ddfd94"><path d="M 224 517 L 383 517 L 383 742.457031 L 224 742.457031 Z M 224 517 " clip-rule="nonzero"/></clipPath><clipPath id="9a1f09c725"><path d="M 585 517 L 742.457031 517 L 742.457031 742.457031 L 585 742.457031 Z M 585 517 " clip-rule="nonzero"/></clipPath></defs><rect x="-81" width="972" fill="#ffffff" y="-80.999999" height="971.999992" fill-opacity="1"/><rect x="-81" width="972" fill="#ffffff" y="-80.999999" height="971.999992" fill-opacity="1"/><g clip-path="url(#f7a7d0724d)"><path fill="#0058ca" d="M 275.886719 268.304688 L 417.203125 181.09375 C 417.855469 180.667969 418.554688 180.355469 419.308594 180.164062 C 420.0625 179.96875 420.828125 179.90625 421.601562 179.96875 C 422.378906 180.035156 423.121094 180.222656 423.832031 180.539062 C 424.546875 180.851562 425.1875 181.273438 425.757812 181.804688 C 426.03125 182.058594 426.277344 182.335938 426.496094 182.640625 C 426.714844 182.945312 426.898438 183.269531 427.046875 183.613281 C 427.199219 183.953125 427.3125 184.308594 427.386719 184.675781 C 427.464844 185.042969 427.503906 185.414062 427.503906 185.785156 C 427.503906 186.160156 427.464844 186.53125 427.386719 186.898438 C 427.3125 187.265625 427.199219 187.617188 427.046875 187.960938 C 426.898438 188.304688 426.714844 188.628906 426.496094 188.933594 C 426.277344 189.238281 426.03125 189.515625 425.757812 189.769531 L 277.542969 332.753906 C 275.980469 334.265625 274.941406 336.074219 274.425781 338.1875 L 250.109375 437.851562 L 271.984375 443.195312 L 295.519531 346.679688 L 441.363281 206.039062 C 442.042969 205.390625 442.6875 204.707031 443.300781 203.992188 C 443.910156 203.277344 444.484375 202.535156 445.023438 201.761719 C 445.558594 200.988281 446.054688 200.191406 446.511719 199.367188 C 446.964844 198.542969 447.378906 197.699219 447.75 196.835938 C 448.117188 195.96875 448.445312 195.089844 448.726562 194.191406 C 449.007812 193.292969 449.242188 192.382812 449.429688 191.460938 C 449.617188 190.539062 449.761719 189.609375 449.855469 188.675781 C 449.949219 187.738281 450 186.800781 450 185.859375 C 450 184.917969 449.949219 183.980469 449.855469 183.042969 C 449.761719 182.109375 449.617188 181.179688 449.429688 180.257812 C 449.242188 179.335938 449.007812 178.425781 448.726562 177.527344 C 448.445312 176.632812 448.117188 175.75 447.75 174.886719 C 447.378906 174.019531 446.964844 173.175781 446.511719 172.351562 C 446.054688 171.53125 445.558594 170.730469 445.023438 169.957031 C 444.484375 169.1875 443.910156 168.441406 443.300781 167.726562 C 442.6875 167.011719 442.042969 166.328125 441.363281 165.679688 C 440.175781 164.542969 438.902344 163.511719 437.546875 162.589844 C 436.1875 161.667969 434.761719 160.863281 433.265625 160.179688 C 431.773438 159.492188 430.234375 158.9375 428.648438 158.511719 C 427.0625 158.085938 425.449219 157.792969 423.816406 157.636719 C 422.179688 157.480469 420.542969 157.464844 418.90625 157.582031 C 417.265625 157.699219 415.648438 157.953125 414.054688 158.34375 C 412.457031 158.734375 410.90625 159.253906 409.398438 159.902344 C 407.886719 160.550781 406.445312 161.324219 405.066406 162.214844 L 266.785156 247.476562 L 234.976562 247.476562 C 235.910156 246.570312 236.816406 245.640625 237.699219 244.6875 C 238.585938 243.734375 239.445312 242.761719 240.28125 241.765625 C 241.117188 240.769531 241.929688 239.753906 242.714844 238.71875 C 243.5 237.683594 244.261719 236.628906 244.992188 235.558594 C 245.726562 234.484375 246.433594 233.394531 247.113281 232.285156 C 247.792969 231.179688 248.445312 230.054688 249.070312 228.914062 C 249.695312 227.773438 250.289062 226.617188 250.855469 225.449219 C 251.421875 224.277344 251.960938 223.097656 252.46875 221.898438 C 252.976562 220.703125 253.457031 219.496094 253.902344 218.273438 C 254.351562 217.054688 254.769531 215.824219 255.160156 214.582031 C 255.546875 213.34375 255.902344 212.09375 256.226562 210.835938 C 256.554688 209.578125 256.847656 208.3125 257.113281 207.039062 C 257.375 205.765625 257.605469 204.488281 257.804688 203.203125 C 258.003906 201.917969 258.171875 200.628906 258.308594 199.335938 C 258.445312 198.042969 258.546875 196.75 258.621094 195.449219 C 258.691406 194.152344 258.730469 192.855469 258.738281 191.554688 C 258.746094 190.253906 258.722656 188.953125 258.664062 187.65625 C 258.609375 186.359375 258.519531 185.0625 258.398438 183.765625 C 258.277344 182.472656 258.125 181.183594 257.941406 179.894531 C 257.753906 178.609375 257.539062 177.328125 257.289062 176.050781 C 257.042969 174.777344 256.761719 173.507812 256.449219 172.246094 C 256.140625 170.984375 255.796875 169.730469 255.421875 168.484375 C 255.050781 167.238281 254.648438 166.003906 254.210938 164.777344 C 253.777344 163.554688 253.3125 162.339844 252.820312 161.136719 C 252.324219 159.9375 251.800781 158.746094 251.246094 157.570312 C 250.695312 156.394531 250.113281 155.230469 249.5 154.085938 C 248.890625 152.9375 248.25 151.804688 247.582031 150.691406 C 246.917969 149.574219 246.222656 148.476562 245.5 147.394531 C 244.78125 146.3125 244.03125 145.25 243.257812 144.207031 C 242.484375 143.160156 241.683594 142.136719 240.859375 141.132812 C 240.035156 140.128906 239.1875 139.144531 238.3125 138.179688 C 237.441406 137.21875 236.542969 136.277344 235.625 135.359375 C 234.703125 134.441406 233.761719 133.546875 232.796875 132.675781 C 231.832031 131.804688 230.847656 130.957031 229.839844 130.132812 C 228.835938 129.308594 227.808594 128.511719 226.761719 127.742188 C 225.71875 126.96875 224.652344 126.222656 223.570312 125.503906 C 222.488281 124.785156 221.386719 124.089844 220.273438 123.425781 C 219.15625 122.761719 218.023438 122.125 216.875 121.515625 C 215.726562 120.90625 214.5625 120.328125 213.386719 119.773438 C 212.207031 119.222656 211.019531 118.703125 209.816406 118.210938 C 208.613281 117.71875 207.398438 117.253906 206.171875 116.824219 C 204.945312 116.390625 203.710938 115.988281 202.464844 115.617188 C 201.21875 115.246094 199.964844 114.90625 198.703125 114.597656 C 197.4375 114.289062 196.167969 114.011719 194.894531 113.765625 C 193.617188 113.519531 192.335938 113.304688 191.046875 113.121094 C 189.761719 112.941406 188.46875 112.789062 187.175781 112.671875 C 185.882812 112.550781 184.585938 112.464844 183.285156 112.410156 C 181.988281 112.355469 180.6875 112.332031 179.386719 112.34375 C 178.089844 112.351562 176.789062 112.394531 175.492188 112.46875 C 174.195312 112.542969 172.898438 112.648438 171.605469 112.789062 C 170.3125 112.925781 169.027344 113.09375 167.742188 113.296875 C 166.457031 113.5 165.179688 113.734375 163.90625 114 C 162.632812 114.265625 161.371094 114.558594 160.113281 114.886719 C 158.855469 115.214844 157.605469 115.574219 156.363281 115.964844 C 155.125 116.355469 153.894531 116.773438 152.675781 117.226562 C 151.457031 117.675781 150.25 118.15625 149.054688 118.667969 C 147.859375 119.175781 146.675781 119.71875 145.507812 120.285156 C 144.339844 120.855469 143.183594 121.453125 142.046875 122.078125 C 140.90625 122.703125 139.785156 123.359375 138.675781 124.039062 C 137.570312 124.722656 136.480469 125.429688 135.410156 126.167969 C 134.335938 126.902344 133.285156 127.664062 132.25 128.453125 C 131.214844 129.238281 130.203125 130.050781 129.210938 130.890625 C 128.214844 131.726562 127.242188 132.589844 126.292969 133.476562 C 125.339844 134.363281 124.414062 135.269531 123.507812 136.203125 C 122.601562 137.136719 121.71875 138.089844 120.859375 139.066406 C 120 140.039062 119.167969 141.039062 118.355469 142.054688 C 117.546875 143.070312 116.761719 144.109375 116.003906 145.164062 C 115.246094 146.21875 114.515625 147.292969 113.8125 148.386719 C 113.105469 149.476562 112.429688 150.585938 111.777344 151.710938 C 111.128906 152.839844 110.507812 153.980469 109.914062 155.136719 C 109.320312 156.292969 108.753906 157.460938 108.21875 158.648438 C 107.683594 159.832031 107.175781 161.027344 106.699219 162.238281 C 106.222656 163.445312 105.777344 164.667969 105.363281 165.898438 C 104.945312 167.128906 104.5625 168.371094 104.207031 169.621094 C 103.851562 170.871094 103.527344 172.132812 103.238281 173.398438 C 102.945312 174.664062 102.683594 175.9375 102.453125 177.21875 C 102.226562 178.496094 102.027344 179.78125 101.863281 181.070312 C 101.699219 182.359375 101.5625 183.652344 101.460938 184.949219 C 101.359375 186.242188 101.292969 187.542969 101.253906 188.839844 C 101.214844 190.140625 101.210938 191.441406 101.238281 192.738281 C 101.265625 194.039062 101.324219 195.335938 101.417969 196.632812 C 101.507812 197.929688 101.632812 199.222656 101.785156 200.515625 C 101.941406 201.804688 102.128906 203.089844 102.347656 204.371094 C 102.566406 205.652344 102.816406 206.929688 103.101562 208.199219 C 103.382812 209.464844 103.695312 210.726562 104.039062 211.980469 C 104.382812 213.234375 104.761719 214.476562 105.167969 215.710938 C 105.574219 216.949219 106.007812 218.171875 106.476562 219.382812 C 106.941406 220.597656 107.4375 221.796875 107.964844 222.988281 C 108.492188 224.175781 109.046875 225.351562 109.632812 226.511719 C 110.214844 227.671875 110.828125 228.820312 111.46875 229.949219 C 112.109375 231.078125 112.78125 232.195312 113.476562 233.292969 C 114.171875 234.390625 114.894531 235.46875 115.644531 236.53125 C 116.394531 237.59375 117.171875 238.636719 117.972656 239.660156 C 118.773438 240.683594 119.601562 241.683594 120.449219 242.667969 C 121.300781 243.648438 122.175781 244.609375 123.074219 245.550781 C 123.972656 246.488281 124.894531 247.40625 125.839844 248.300781 C 95.191406 253.238281 67.457031 282.042969 67.457031 311.441406 L 67.457031 407.246094 C 67.453125 409.699219 68.179688 411.917969 69.628906 413.898438 L 91.769531 444.152344 L 91.769531 551.265625 L 114.273438 551.265625 L 114.273438 440.519531 C 114.269531 438.066406 113.546875 435.847656 112.101562 433.867188 L 89.957031 403.613281 L 89.957031 311.441406 C 89.957031 291.289062 113.089844 269.980469 134.964844 269.980469 L 269.980469 269.980469 C 272.109375 269.980469 274.078125 269.421875 275.886719 268.304688 Z M 123.714844 191.222656 C 123.714844 189.378906 123.804688 187.539062 123.984375 185.707031 C 124.164062 183.875 124.433594 182.054688 124.792969 180.246094 C 125.152344 178.4375 125.601562 176.652344 126.136719 174.890625 C 126.671875 173.128906 127.289062 171.394531 127.996094 169.691406 C 128.699219 167.992188 129.488281 166.328125 130.355469 164.703125 C 131.222656 163.078125 132.171875 161.5 133.195312 159.964844 C 134.21875 158.433594 135.3125 156.957031 136.484375 155.53125 C 137.652344 154.109375 138.886719 152.746094 140.191406 151.441406 C 141.492188 150.140625 142.855469 148.902344 144.28125 147.734375 C 145.707031 146.566406 147.183594 145.46875 148.714844 144.445312 C 150.246094 143.421875 151.824219 142.476562 153.449219 141.605469 C 155.074219 140.738281 156.738281 139.953125 158.441406 139.246094 C 160.144531 138.542969 161.875 137.921875 163.640625 137.386719 C 165.402344 136.851562 167.1875 136.40625 168.996094 136.046875 C 170.800781 135.6875 172.621094 135.414062 174.457031 135.234375 C 176.289062 135.054688 178.128906 134.964844 179.96875 134.964844 C 181.8125 134.964844 183.648438 135.054688 185.484375 135.234375 C 187.316406 135.414062 189.136719 135.6875 190.945312 136.046875 C 192.753906 136.40625 194.539062 136.851562 196.300781 137.386719 C 198.0625 137.921875 199.796875 138.542969 201.5 139.246094 C 203.199219 139.953125 204.863281 140.738281 206.488281 141.605469 C 208.113281 142.476562 209.691406 143.421875 211.222656 144.445312 C 212.757812 145.46875 214.234375 146.566406 215.660156 147.734375 C 217.082031 148.902344 218.445312 150.140625 219.75 151.441406 C 221.050781 152.746094 222.289062 154.109375 223.457031 155.53125 C 224.625 156.957031 225.722656 158.433594 226.746094 159.964844 C 227.769531 161.5 228.714844 163.078125 229.582031 164.703125 C 230.453125 166.328125 231.238281 167.992188 231.945312 169.691406 C 232.648438 171.394531 233.269531 173.128906 233.804688 174.890625 C 234.339844 176.652344 234.785156 178.4375 235.144531 180.246094 C 235.503906 182.054688 235.773438 183.875 235.957031 185.707031 C 236.136719 187.539062 236.226562 189.378906 236.226562 191.222656 C 236.226562 193.0625 236.136719 194.902344 235.957031 196.734375 C 235.773438 198.570312 235.503906 200.390625 235.144531 202.195312 C 234.785156 204.003906 234.339844 205.789062 233.804688 207.550781 C 233.269531 209.316406 232.648438 211.046875 231.945312 212.75 C 231.238281 214.453125 230.453125 216.117188 229.582031 217.742188 C 228.714844 219.367188 227.769531 220.945312 226.746094 222.476562 C 225.722656 224.007812 224.625 225.484375 223.457031 226.910156 C 222.289062 228.335938 221.050781 229.699219 219.75 231 C 218.445312 232.304688 217.082031 233.539062 215.660156 234.707031 C 214.234375 235.878906 212.757812 236.972656 211.222656 237.996094 C 209.691406 239.019531 208.113281 239.964844 206.488281 240.835938 C 204.863281 241.703125 203.199219 242.492188 201.5 243.195312 C 199.796875 243.902344 198.0625 244.519531 196.300781 245.054688 C 194.539062 245.589844 192.753906 246.039062 190.945312 246.398438 C 189.136719 246.757812 187.316406 247.027344 185.484375 247.207031 C 183.648438 247.386719 181.8125 247.476562 179.96875 247.476562 C 178.128906 247.476562 176.289062 247.382812 174.457031 247.199219 C 172.625 247.019531 170.804688 246.746094 169 246.386719 C 167.191406 246.023438 165.410156 245.578125 163.648438 245.039062 C 161.882812 244.503906 160.152344 243.882812 158.453125 243.175781 C 156.75 242.472656 155.085938 241.683594 153.464844 240.816406 C 151.839844 239.945312 150.261719 239 148.730469 237.976562 C 147.199219 236.953125 145.722656 235.855469 144.300781 234.6875 C 142.875 233.519531 141.511719 232.285156 140.210938 230.980469 C 138.90625 229.679688 137.671875 228.316406 136.503906 226.890625 C 135.335938 225.46875 134.238281 223.992188 133.214844 222.460938 C 132.191406 220.929688 131.246094 219.351562 130.375 217.726562 C 129.507812 216.101562 128.71875 214.441406 128.011719 212.738281 C 127.308594 211.039062 126.6875 209.304688 126.152344 207.542969 C 125.613281 205.78125 125.167969 203.996094 124.804688 202.191406 C 124.445312 200.386719 124.171875 198.566406 123.988281 196.734375 C 123.808594 194.902344 123.714844 193.0625 123.714844 191.222656 Z M 123.714844 191.222656 " fill-opacity="1" fill-rule="nonzero"/></g><g clip-path="url(#dc10bde720)"><path fill="#0058ca" d="M 731.285156 67.457031 L 78.707031 67.457031 L 78.707031 89.957031 L 720.035156 89.957031 L 720.035156 427.5 L 404.996094 427.5 L 404.996094 450.003906 L 731.285156 450.003906 C 732.027344 450.003906 732.757812 449.929688 733.480469 449.785156 C 734.207031 449.640625 734.910156 449.429688 735.59375 449.144531 C 736.273438 448.863281 736.921875 448.515625 737.539062 448.105469 C 738.152344 447.695312 738.71875 447.230469 739.242188 446.707031 C 739.765625 446.183594 740.230469 445.617188 740.640625 445.003906 C 741.050781 444.386719 741.398438 443.738281 741.679688 443.058594 C 741.964844 442.375 742.179688 441.671875 742.320312 440.945312 C 742.464844 440.222656 742.539062 439.488281 742.539062 438.75 L 742.539062 78.707031 C 742.539062 77.96875 742.464844 77.238281 742.320312 76.511719 C 742.179688 75.789062 741.964844 75.085938 741.679688 74.402344 C 741.398438 73.71875 741.050781 73.070312 740.640625 72.457031 C 740.230469 71.84375 739.765625 71.273438 739.242188 70.75 C 738.71875 70.230469 738.152344 69.761719 737.539062 69.351562 C 736.921875 68.941406 736.273438 68.59375 735.59375 68.3125 C 734.910156 68.03125 734.207031 67.816406 733.480469 67.671875 C 732.757812 67.527344 732.027344 67.457031 731.285156 67.457031 Z M 731.285156 67.457031 " fill-opacity="1" fill-rule="nonzero"/></g><path fill="#0058ca" d="M 495.007812 134.964844 L 562.515625 134.964844 L 562.515625 157.46875 L 495.007812 157.46875 Z M 495.007812 134.964844 " fill-opacity="1" fill-rule="nonzero"/><path fill="#0058ca" d="M 585.019531 269.980469 L 652.527344 269.980469 L 652.527344 292.484375 L 585.019531 292.484375 Z M 585.019531 269.980469 " fill-opacity="1" fill-rule="nonzero"/><path fill="#0058ca" d="M 472.503906 359.992188 L 540.011719 359.992188 L 540.011719 382.496094 L 472.503906 382.496094 Z M 472.503906 359.992188 " fill-opacity="1" fill-rule="nonzero"/><g clip-path="url(#d1e2aab5c1)"><path fill="#0058ca" d="M 519.996094 616.433594 C 520.726562 615.816406 521.441406 615.183594 522.136719 614.535156 C 522.835938 613.882812 523.515625 613.214844 524.179688 612.53125 C 524.84375 611.84375 525.488281 611.140625 526.117188 610.425781 C 526.746094 609.707031 527.355469 608.972656 527.945312 608.222656 C 528.535156 607.472656 529.105469 606.710938 529.65625 605.929688 C 530.210938 605.152344 530.742188 604.359375 531.253906 603.554688 C 531.761719 602.75 532.253906 601.929688 532.722656 601.101562 C 533.191406 600.269531 533.640625 599.429688 534.070312 598.574219 C 534.496094 597.722656 534.898438 596.859375 535.285156 595.984375 C 535.667969 595.109375 536.027344 594.226562 536.363281 593.335938 C 536.703125 592.441406 537.019531 591.542969 537.308594 590.636719 C 537.601562 589.726562 537.871094 588.8125 538.117188 587.890625 C 538.363281 586.96875 538.585938 586.039062 538.78125 585.105469 C 538.980469 584.171875 539.15625 583.234375 539.308594 582.292969 C 539.457031 581.351562 539.585938 580.40625 539.6875 579.457031 C 539.789062 578.507812 539.867188 577.558594 539.921875 576.605469 C 539.976562 575.652344 540.007812 574.699219 540.011719 573.746094 C 540.019531 572.792969 540 571.839844 539.957031 570.886719 C 539.914062 569.933594 539.847656 568.980469 539.757812 568.03125 C 539.664062 567.082031 539.550781 566.136719 539.410156 565.191406 C 539.273438 564.246094 539.109375 563.308594 538.921875 562.371094 C 538.734375 561.4375 538.523438 560.507812 538.289062 559.582031 C 538.054688 558.65625 537.796875 557.738281 537.515625 556.828125 C 537.234375 555.914062 536.929688 555.011719 536.601562 554.113281 C 536.277344 553.21875 535.925781 552.332031 535.554688 551.453125 C 535.183594 550.574219 534.789062 549.707031 534.371094 548.847656 C 533.953125 547.988281 533.515625 547.140625 533.058594 546.304688 C 532.597656 545.46875 532.117188 544.644531 531.613281 543.835938 C 531.113281 543.023438 530.59375 542.222656 530.050781 541.4375 C 529.507812 540.652344 528.945312 539.882812 528.363281 539.125 C 527.78125 538.371094 527.183594 537.628906 526.5625 536.902344 C 525.945312 536.175781 525.308594 535.46875 524.652344 534.773438 C 523.996094 534.078125 523.324219 533.402344 522.636719 532.742188 C 521.945312 532.085938 521.238281 531.441406 520.519531 530.820312 C 519.796875 530.195312 519.058594 529.589844 518.304688 529.003906 C 517.550781 528.421875 516.785156 527.855469 516.003906 527.308594 C 515.222656 526.761719 514.425781 526.234375 513.617188 525.726562 C 512.808594 525.21875 511.988281 524.734375 511.15625 524.269531 C 510.320312 523.804688 509.476562 523.363281 508.621094 522.941406 C 507.765625 522.519531 506.898438 522.121094 506.023438 521.742188 C 505.148438 521.363281 504.261719 521.007812 503.367188 520.675781 C 502.472656 520.34375 501.570312 520.035156 500.660156 519.746094 C 499.75 519.460938 498.835938 519.199219 497.910156 518.957031 C 496.988281 518.71875 496.058594 518.5 495.125 518.308594 C 494.191406 518.117188 493.25 517.945312 492.308594 517.800781 C 491.367188 517.65625 490.417969 517.535156 489.46875 517.4375 C 488.519531 517.339844 487.570312 517.269531 486.617188 517.21875 C 485.664062 517.171875 484.710938 517.148438 483.757812 517.148438 C 482.800781 517.148438 481.847656 517.171875 480.894531 517.21875 C 479.945312 517.269531 478.992188 517.339844 478.042969 517.4375 C 477.09375 517.535156 476.148438 517.65625 475.207031 517.800781 C 474.261719 517.945312 473.324219 518.117188 472.390625 518.308594 C 471.453125 518.5 470.527344 518.71875 469.601562 518.957031 C 468.679688 519.199219 467.761719 519.460938 466.851562 519.746094 C 465.941406 520.035156 465.039062 520.34375 464.144531 520.675781 C 463.25 521.007812 462.367188 521.363281 461.492188 521.742188 C 460.613281 522.121094 459.75 522.519531 458.890625 522.941406 C 458.035156 523.363281 457.191406 523.804688 456.359375 524.269531 C 455.527344 524.734375 454.703125 525.21875 453.894531 525.726562 C 453.085938 526.234375 452.292969 526.761719 451.511719 527.308594 C 450.730469 527.855469 449.960938 528.421875 449.207031 529.007812 C 448.457031 529.589844 447.71875 530.195312 446.996094 530.820312 C 446.273438 531.441406 445.566406 532.085938 444.878906 532.742188 C 444.1875 533.402344 443.515625 534.078125 442.859375 534.773438 C 442.207031 535.46875 441.570312 536.175781 440.949219 536.902344 C 440.332031 537.628906 439.730469 538.371094 439.148438 539.125 C 438.566406 539.882812 438.007812 540.652344 437.464844 541.4375 C 436.921875 542.222656 436.398438 543.023438 435.898438 543.835938 C 435.398438 544.644531 434.917969 545.46875 434.457031 546.304688 C 433.996094 547.140625 433.558594 547.988281 433.144531 548.847656 C 432.726562 549.707031 432.332031 550.574219 431.960938 551.453125 C 431.585938 552.332031 431.238281 553.21875 430.910156 554.113281 C 430.582031 555.011719 430.277344 555.914062 429.996094 556.828125 C 429.71875 557.738281 429.460938 558.65625 429.222656 559.582031 C 428.988281 560.507812 428.78125 561.4375 428.59375 562.371094 C 428.40625 563.308594 428.242188 564.246094 428.101562 565.191406 C 427.964844 566.136719 427.847656 567.082031 427.757812 568.03125 C 427.664062 568.980469 427.597656 569.933594 427.554688 570.886719 C 427.511719 571.839844 427.496094 572.792969 427.5 573.746094 C 427.507812 574.699219 427.535156 575.652344 427.589844 576.605469 C 427.644531 577.558594 427.722656 578.507812 427.828125 579.457031 C 427.929688 580.40625 428.054688 581.351562 428.207031 582.292969 C 428.359375 583.234375 428.53125 584.171875 428.730469 585.105469 C 428.929688 586.039062 429.152344 586.96875 429.398438 587.890625 C 429.640625 588.8125 429.910156 589.726562 430.203125 590.636719 C 430.496094 591.542969 430.8125 592.441406 431.148438 593.335938 C 431.488281 594.226562 431.847656 595.109375 432.230469 595.984375 C 432.613281 596.859375 433.019531 597.722656 433.445312 598.574219 C 433.871094 599.429688 434.320312 600.269531 434.789062 601.101562 C 435.257812 601.929688 435.75 602.75 436.261719 603.554688 C 436.773438 604.359375 437.304688 605.152344 437.855469 605.929688 C 438.40625 606.707031 438.980469 607.472656 439.570312 608.222656 C 440.160156 608.972656 440.769531 609.707031 441.398438 610.425781 C 442.023438 611.140625 442.671875 611.84375 443.332031 612.53125 C 443.996094 613.214844 444.675781 613.882812 445.375 614.535156 C 446.074219 615.183594 446.785156 615.816406 447.515625 616.433594 C 445.925781 617.257812 444.363281 618.136719 442.832031 619.066406 C 441.300781 619.996094 439.804688 620.980469 438.339844 622.011719 C 436.875 623.046875 435.449219 624.128906 434.058594 625.257812 C 432.667969 626.390625 431.320312 627.566406 430.007812 628.789062 C 428.699219 630.011719 427.433594 631.277344 426.210938 632.585938 C 424.984375 633.898438 423.808594 635.246094 422.675781 636.636719 C 421.546875 638.023438 420.464844 639.453125 419.429688 640.914062 C 418.394531 642.378906 417.414062 643.875 416.480469 645.40625 C 415.550781 646.9375 414.671875 648.496094 413.847656 650.089844 C 413.019531 651.679688 412.25 653.296875 411.535156 654.9375 C 410.820312 656.582031 410.164062 658.246094 409.5625 659.9375 C 408.960938 661.625 408.417969 663.332031 407.933594 665.054688 C 407.449219 666.78125 407.023438 668.519531 406.65625 670.273438 C 406.292969 672.027344 405.984375 673.792969 405.738281 675.566406 C 405.496094 677.34375 405.308594 679.125 405.1875 680.910156 C 405.0625 682.699219 405 684.488281 404.996094 686.28125 L 404.996094 720.035156 C 404.992188 721.085938 405.128906 722.117188 405.414062 723.128906 C 405.695312 724.140625 406.113281 725.09375 406.660156 725.988281 C 407.210938 726.882812 407.875 727.683594 408.648438 728.394531 C 409.421875 729.101562 410.28125 729.691406 411.21875 730.160156 L 433.722656 741.414062 C 435.308594 742.183594 436.988281 742.558594 438.75 742.539062 L 528.761719 742.539062 C 530.527344 742.558594 532.203125 742.183594 533.792969 741.414062 L 556.292969 730.160156 C 557.234375 729.691406 558.089844 729.101562 558.863281 728.394531 C 559.640625 727.683594 560.300781 726.882812 560.851562 725.988281 C 561.402344 725.09375 561.816406 724.140625 562.101562 723.128906 C 562.382812 722.117188 562.523438 721.085938 562.515625 720.035156 L 562.515625 686.28125 C 562.515625 684.488281 562.453125 682.699219 562.328125 680.910156 C 562.203125 679.125 562.019531 677.34375 561.773438 675.566406 C 561.527344 673.792969 561.222656 672.027344 560.855469 670.273438 C 560.492188 668.519531 560.066406 666.78125 559.582031 665.054688 C 559.097656 663.332031 558.554688 661.625 557.953125 659.9375 C 557.351562 658.246094 556.691406 656.582031 555.976562 654.9375 C 555.261719 653.296875 554.492188 651.679688 553.667969 650.089844 C 552.84375 648.496094 551.964844 646.9375 551.03125 645.40625 C 550.101562 643.875 549.117188 642.378906 548.082031 640.914062 C 547.050781 639.453125 545.96875 638.023438 544.835938 636.636719 C 543.703125 635.246094 542.527344 633.898438 541.304688 632.585938 C 540.082031 631.277344 538.8125 630.011719 537.503906 628.789062 C 536.195312 627.566406 534.84375 626.390625 533.453125 625.257812 C 532.0625 624.128906 530.636719 623.046875 529.171875 622.011719 C 527.707031 620.980469 526.210938 619.996094 524.679688 619.066406 C 523.148438 618.136719 521.589844 617.257812 519.996094 616.433594 Z M 450.003906 573.769531 C 450.003906 572.664062 450.058594 571.558594 450.164062 570.460938 C 450.273438 569.359375 450.433594 568.265625 450.652344 567.183594 C 450.867188 566.097656 451.136719 565.027344 451.457031 563.96875 C 451.777344 562.910156 452.148438 561.871094 452.570312 560.851562 C 452.996094 559.828125 453.46875 558.832031 453.988281 557.855469 C 454.507812 556.882812 455.078125 555.933594 455.691406 555.015625 C 456.304688 554.09375 456.964844 553.207031 457.664062 552.355469 C 458.367188 551.5 459.105469 550.679688 459.890625 549.898438 C 460.671875 549.117188 461.488281 548.375 462.34375 547.675781 C 463.199219 546.972656 464.085938 546.316406 465.003906 545.703125 C 465.921875 545.089844 466.871094 544.519531 467.84375 544 C 468.820312 543.476562 469.816406 543.007812 470.839844 542.582031 C 471.859375 542.160156 472.902344 541.789062 473.957031 541.46875 C 475.015625 541.144531 476.085938 540.878906 477.171875 540.660156 C 478.257812 540.445312 479.347656 540.285156 480.449219 540.175781 C 481.546875 540.066406 482.652344 540.011719 483.757812 540.011719 C 484.863281 540.011719 485.964844 540.066406 487.066406 540.175781 C 488.164062 540.285156 489.257812 540.445312 490.339844 540.664062 C 491.425781 540.878906 492.496094 541.144531 493.554688 541.46875 C 494.613281 541.789062 495.652344 542.160156 496.671875 542.582031 C 497.695312 543.007812 498.691406 543.476562 499.667969 544 C 500.644531 544.519531 501.589844 545.089844 502.507812 545.703125 C 503.429688 546.316406 504.316406 546.972656 505.171875 547.675781 C 506.023438 548.375 506.84375 549.117188 507.625 549.898438 C 508.40625 550.679688 509.148438 551.5 509.847656 552.355469 C 510.550781 553.207031 511.207031 554.09375 511.820312 555.015625 C 512.4375 555.933594 513.003906 556.882812 513.523438 557.855469 C 514.046875 558.832031 514.519531 559.828125 514.941406 560.851562 C 515.363281 561.871094 515.738281 562.910156 516.058594 563.96875 C 516.378906 565.027344 516.648438 566.097656 516.863281 567.183594 C 517.078125 568.265625 517.238281 569.359375 517.347656 570.460938 C 517.457031 571.558594 517.511719 572.664062 517.511719 573.769531 C 517.511719 574.875 517.457031 575.976562 517.347656 577.074219 C 517.238281 578.175781 517.078125 579.269531 516.863281 580.351562 C 516.648438 581.4375 516.378906 582.507812 516.058594 583.566406 C 515.738281 584.625 515.363281 585.664062 514.941406 586.683594 C 514.519531 587.707031 514.046875 588.703125 513.523438 589.679688 C 513.003906 590.652344 512.4375 591.601562 511.820312 592.519531 C 511.207031 593.441406 510.550781 594.328125 509.847656 595.179688 C 509.148438 596.035156 508.40625 596.855469 507.625 597.636719 C 506.84375 598.417969 506.023438 599.160156 505.171875 599.859375 C 504.316406 600.5625 503.429688 601.21875 502.507812 601.832031 C 501.589844 602.449219 500.644531 603.015625 499.667969 603.535156 C 498.691406 604.058594 497.695312 604.527344 496.671875 604.953125 C 495.652344 605.375 494.613281 605.746094 493.554688 606.066406 C 492.496094 606.390625 491.425781 606.65625 490.339844 606.875 C 489.257812 607.089844 488.164062 607.25 487.066406 607.359375 C 485.964844 607.46875 484.863281 607.523438 483.757812 607.523438 C 482.652344 607.523438 481.546875 607.46875 480.449219 607.359375 C 479.347656 607.25 478.257812 607.089844 477.171875 606.875 C 476.085938 606.65625 475.015625 606.390625 473.957031 606.066406 C 472.902344 605.746094 471.859375 605.375 470.839844 604.953125 C 469.816406 604.527344 468.820312 604.058594 467.84375 603.535156 C 466.871094 603.015625 465.921875 602.449219 465.003906 601.832031 C 464.085938 601.21875 463.199219 600.5625 462.34375 599.859375 C 461.488281 599.160156 460.671875 598.417969 459.890625 597.636719 C 459.105469 596.855469 458.367188 596.035156 457.664062 595.179688 C 456.964844 594.328125 456.304688 593.441406 455.691406 592.519531 C 455.078125 591.601562 454.507812 590.652344 453.988281 589.679688 C 453.46875 588.703125 452.996094 587.707031 452.570312 586.683594 C 452.148438 585.664062 451.777344 584.625 451.457031 583.566406 C 451.136719 582.507812 450.867188 581.4375 450.652344 580.351562 C 450.433594 579.269531 450.273438 578.175781 450.164062 577.074219 C 450.058594 575.976562 450.003906 574.875 450.003906 573.769531 Z M 540.011719 713.082031 L 526.105469 720.035156 L 441.40625 720.035156 L 427.5 713.082031 L 427.5 686.28125 C 427.5 684.4375 427.589844 682.601562 427.769531 680.765625 C 427.953125 678.933594 428.222656 677.113281 428.582031 675.304688 C 428.941406 673.5 429.386719 671.714844 429.921875 669.949219 C 430.457031 668.1875 431.078125 666.453125 431.78125 664.753906 C 432.488281 663.050781 433.273438 661.386719 434.140625 659.761719 C 435.011719 658.136719 435.957031 656.558594 436.980469 655.027344 C 438.003906 653.496094 439.101562 652.015625 440.269531 650.59375 C 441.4375 649.167969 442.675781 647.804688 443.976562 646.5 C 445.28125 645.199219 446.644531 643.964844 448.066406 642.792969 C 449.492188 641.625 450.96875 640.527344 452.503906 639.503906 C 454.035156 638.480469 455.613281 637.535156 457.238281 636.667969 C 458.863281 635.796875 460.527344 635.011719 462.226562 634.308594 C 463.929688 633.601562 465.664062 632.980469 467.425781 632.445312 C 469.1875 631.910156 470.972656 631.464844 472.78125 631.105469 C 474.589844 630.746094 476.410156 630.476562 478.242188 630.296875 C 480.074219 630.113281 481.914062 630.023438 483.757812 630.023438 C 485.597656 630.023438 487.4375 630.113281 489.269531 630.296875 C 491.105469 630.476562 492.925781 630.746094 494.730469 631.105469 C 496.539062 631.464844 498.324219 631.910156 500.085938 632.445312 C 501.851562 632.980469 503.582031 633.601562 505.285156 634.308594 C 506.988281 635.011719 508.652344 635.796875 510.277344 636.667969 C 511.902344 637.535156 513.480469 638.480469 515.011719 639.503906 C 516.542969 640.527344 518.019531 641.625 519.445312 642.792969 C 520.871094 643.964844 522.234375 645.199219 523.535156 646.5 C 524.839844 647.804688 526.074219 649.167969 527.242188 650.59375 C 528.414062 652.015625 529.507812 653.496094 530.53125 655.027344 C 531.554688 656.558594 532.503906 658.136719 533.371094 659.761719 C 534.238281 661.386719 535.027344 663.050781 535.730469 664.753906 C 536.4375 666.453125 537.054688 668.1875 537.589844 669.949219 C 538.125 671.714844 538.574219 673.5 538.933594 675.304688 C 539.292969 677.113281 539.5625 678.933594 539.742188 680.765625 C 539.921875 682.601562 540.011719 684.4375 540.011719 686.28125 Z M 540.011719 713.082031 " fill-opacity="1" fill-rule="nonzero"/></g><g clip-path="url(#e4e3ddfd94)"><path fill="#0058ca" d="M 339.976562 616.433594 C 340.707031 615.816406 341.417969 615.183594 342.117188 614.535156 C 342.8125 613.882812 343.496094 613.214844 344.15625 612.53125 C 344.820312 611.84375 345.46875 611.140625 346.09375 610.425781 C 346.722656 609.707031 347.332031 608.972656 347.921875 608.222656 C 348.511719 607.472656 349.085938 606.707031 349.636719 605.929688 C 350.1875 605.152344 350.71875 604.359375 351.230469 603.554688 C 351.742188 602.75 352.230469 601.929688 352.703125 601.101562 C 353.171875 600.269531 353.621094 599.429688 354.046875 598.574219 C 354.472656 597.722656 354.878906 596.859375 355.261719 595.984375 C 355.644531 595.109375 356.003906 594.226562 356.34375 593.335938 C 356.679688 592.441406 356.996094 591.542969 357.289062 590.636719 C 357.582031 589.726562 357.847656 588.8125 358.09375 587.890625 C 358.339844 586.96875 358.5625 586.039062 358.761719 585.105469 C 358.960938 584.171875 359.132812 583.234375 359.285156 582.292969 C 359.4375 581.351562 359.5625 580.40625 359.664062 579.457031 C 359.769531 578.507812 359.847656 577.558594 359.902344 576.605469 C 359.953125 575.652344 359.984375 574.699219 359.992188 573.746094 C 359.996094 572.792969 359.976562 571.839844 359.933594 570.886719 C 359.894531 569.933594 359.824219 568.980469 359.734375 568.03125 C 359.644531 567.082031 359.527344 566.136719 359.390625 565.191406 C 359.25 564.246094 359.085938 563.308594 358.898438 562.371094 C 358.710938 561.4375 358.5 560.507812 358.265625 559.582031 C 358.03125 558.65625 357.773438 557.738281 357.492188 556.828125 C 357.210938 555.914062 356.910156 555.011719 356.582031 554.113281 C 356.253906 553.21875 355.90625 552.332031 355.53125 551.453125 C 355.160156 550.574219 354.765625 549.707031 354.347656 548.847656 C 353.933594 547.988281 353.496094 547.140625 353.035156 546.304688 C 352.574219 545.46875 352.09375 544.644531 351.59375 543.835938 C 351.09375 543.023438 350.570312 542.222656 350.027344 541.4375 C 349.484375 540.652344 348.925781 539.882812 348.34375 539.125 C 347.761719 538.371094 347.160156 537.628906 346.542969 536.902344 C 345.921875 536.175781 345.285156 535.46875 344.628906 534.773438 C 343.976562 534.078125 343.304688 533.402344 342.613281 532.742188 C 341.925781 532.085938 341.21875 531.441406 340.496094 530.820312 C 339.773438 530.195312 339.035156 529.589844 338.285156 529.003906 C 337.53125 528.421875 336.761719 527.851562 335.980469 527.304688 C 335.199219 526.757812 334.402344 526.234375 333.59375 525.726562 C 332.785156 525.21875 331.964844 524.734375 331.132812 524.269531 C 330.300781 523.804688 329.453125 523.363281 328.597656 522.941406 C 327.742188 522.519531 326.878906 522.121094 326 521.742188 C 325.125 521.363281 324.238281 521.007812 323.34375 520.675781 C 322.453125 520.34375 321.550781 520.035156 320.640625 519.746094 C 319.730469 519.460938 318.8125 519.199219 317.890625 518.957031 C 316.964844 518.71875 316.035156 518.5 315.101562 518.308594 C 314.167969 518.117188 313.230469 517.945312 312.285156 517.800781 C 311.34375 517.65625 310.398438 517.535156 309.449219 517.4375 C 308.5 517.339844 307.546875 517.269531 306.59375 517.21875 C 305.640625 517.171875 304.6875 517.148438 303.734375 517.148438 C 302.78125 517.148438 301.828125 517.171875 300.875 517.21875 C 299.921875 517.269531 298.96875 517.339844 298.023438 517.4375 C 297.074219 517.535156 296.125 517.65625 295.183594 517.800781 C 294.242188 517.945312 293.300781 518.117188 292.367188 518.308594 C 291.433594 518.5 290.503906 518.71875 289.582031 518.957031 C 288.65625 519.199219 287.742188 519.460938 286.832031 519.746094 C 285.921875 520.035156 285.019531 520.34375 284.125 520.675781 C 283.230469 521.007812 282.34375 521.363281 281.46875 521.742188 C 280.59375 522.121094 279.726562 522.519531 278.871094 522.941406 C 278.015625 523.363281 277.171875 523.804688 276.335938 524.269531 C 275.503906 524.734375 274.683594 525.21875 273.875 525.726562 C 273.066406 526.234375 272.269531 526.761719 271.488281 527.308594 C 270.707031 527.855469 269.9375 528.421875 269.1875 529.007812 C 268.433594 529.589844 267.695312 530.195312 266.972656 530.820312 C 266.25 531.445312 265.546875 532.085938 264.855469 532.742188 C 264.167969 533.402344 263.492188 534.078125 262.839844 534.773438 C 262.183594 535.46875 261.546875 536.175781 260.925781 536.902344 C 260.308594 537.628906 259.707031 538.371094 259.128906 539.125 C 258.546875 539.882812 257.984375 540.652344 257.441406 541.4375 C 256.898438 542.222656 256.378906 543.023438 255.875 543.835938 C 255.375 544.644531 254.894531 545.46875 254.433594 546.304688 C 253.976562 547.140625 253.539062 547.988281 253.121094 548.847656 C 252.703125 549.707031 252.308594 550.574219 251.9375 551.453125 C 251.566406 552.332031 251.214844 553.21875 250.886719 554.113281 C 250.5625 555.011719 250.257812 555.914062 249.976562 556.828125 C 249.695312 557.738281 249.4375 558.65625 249.203125 559.582031 C 248.96875 560.507812 248.757812 561.4375 248.570312 562.371094 C 248.382812 563.308594 248.21875 564.246094 248.082031 565.191406 C 247.941406 566.136719 247.828125 567.082031 247.734375 568.03125 C 247.644531 568.980469 247.578125 569.933594 247.535156 570.886719 C 247.492188 571.839844 247.472656 572.792969 247.480469 573.746094 C 247.484375 574.699219 247.515625 575.652344 247.570312 576.605469 C 247.625 577.558594 247.703125 578.507812 247.804688 579.457031 C 247.90625 580.40625 248.035156 581.351562 248.183594 582.292969 C 248.335938 583.234375 248.511719 584.171875 248.707031 585.105469 C 248.90625 586.039062 249.128906 586.96875 249.375 587.890625 C 249.621094 588.8125 249.890625 589.726562 250.179688 590.632812 C 250.472656 591.542969 250.789062 592.441406 251.128906 593.335938 C 251.464844 594.226562 251.824219 595.109375 252.207031 595.984375 C 252.589844 596.859375 252.996094 597.722656 253.421875 598.574219 C 253.851562 599.429688 254.296875 600.269531 254.769531 601.101562 C 255.238281 601.929688 255.726562 602.75 256.238281 603.554688 C 256.75 604.359375 257.28125 605.152344 257.835938 605.929688 C 258.386719 606.707031 258.957031 607.472656 259.546875 608.222656 C 260.136719 608.972656 260.746094 609.707031 261.375 610.425781 C 262.003906 611.140625 262.648438 611.84375 263.3125 612.53125 C 263.976562 613.214844 264.65625 613.882812 265.351562 614.535156 C 266.050781 615.183594 266.765625 615.816406 267.496094 616.433594 C 265.902344 617.257812 264.34375 618.136719 262.8125 619.066406 C 261.28125 619.996094 259.78125 620.980469 258.320312 622.011719 C 256.855469 623.046875 255.425781 624.128906 254.039062 625.257812 C 252.648438 626.390625 251.296875 627.566406 249.988281 628.789062 C 248.679688 630.011719 247.410156 631.277344 246.1875 632.585938 C 244.964844 633.898438 243.789062 635.246094 242.65625 636.636719 C 241.523438 638.023438 240.441406 639.453125 239.40625 640.914062 C 238.375 642.378906 237.390625 643.875 236.460938 645.40625 C 235.527344 646.9375 234.648438 648.496094 233.824219 650.089844 C 233 651.679688 232.230469 653.296875 231.515625 654.9375 C 230.800781 656.582031 230.140625 658.246094 229.539062 659.9375 C 228.9375 661.625 228.394531 663.332031 227.910156 665.054688 C 227.425781 666.78125 227 668.519531 226.636719 670.273438 C 226.269531 672.027344 225.964844 673.792969 225.71875 675.566406 C 225.472656 677.34375 225.289062 679.125 225.164062 680.910156 C 225.039062 682.699219 224.976562 684.488281 224.976562 686.28125 L 224.976562 720.035156 C 224.96875 721.085938 225.109375 722.117188 225.390625 723.128906 C 225.675781 724.140625 226.089844 725.09375 226.640625 725.988281 C 227.191406 726.882812 227.851562 727.683594 228.625 728.394531 C 229.402344 729.101562 230.257812 729.691406 231.199219 730.160156 L 253.699219 741.414062 C 255.289062 742.183594 256.964844 742.558594 258.730469 742.539062 L 348.742188 742.539062 C 350.503906 742.558594 352.179688 742.183594 353.769531 741.414062 L 376.273438 730.160156 C 377.210938 729.691406 378.070312 729.101562 378.84375 728.394531 C 379.617188 727.683594 380.28125 726.882812 380.828125 725.988281 C 381.378906 725.09375 381.796875 724.140625 382.078125 723.128906 C 382.363281 722.117188 382.5 721.085938 382.496094 720.035156 L 382.496094 686.28125 C 382.492188 684.488281 382.429688 682.699219 382.304688 680.910156 C 382.183594 679.125 381.996094 677.34375 381.75 675.566406 C 381.507812 673.792969 381.199219 672.027344 380.835938 670.273438 C 380.46875 668.519531 380.042969 666.78125 379.558594 665.054688 C 379.074219 663.332031 378.53125 661.625 377.929688 659.9375 C 377.328125 658.246094 376.671875 656.582031 375.957031 654.9375 C 375.242188 653.296875 374.472656 651.679688 373.644531 650.089844 C 372.820312 648.496094 371.941406 646.9375 371.011719 645.40625 C 370.078125 643.875 369.09375 642.378906 368.0625 640.914062 C 367.027344 639.453125 365.945312 638.023438 364.8125 636.636719 C 363.683594 635.246094 362.503906 633.898438 361.28125 632.585938 C 360.058594 631.277344 358.792969 630.011719 357.480469 628.789062 C 356.171875 627.566406 354.820312 626.390625 353.433594 625.257812 C 352.042969 624.128906 350.613281 623.046875 349.152344 622.011719 C 347.6875 620.980469 346.1875 619.996094 344.660156 619.066406 C 343.128906 618.136719 341.566406 617.257812 339.976562 616.433594 Z M 269.980469 573.769531 C 269.980469 572.664062 270.035156 571.558594 270.144531 570.460938 C 270.25 569.359375 270.414062 568.265625 270.628906 567.183594 C 270.84375 566.097656 271.113281 565.027344 271.433594 563.96875 C 271.753906 562.910156 272.128906 561.871094 272.550781 560.851562 C 272.972656 559.828125 273.445312 558.832031 273.964844 557.855469 C 274.488281 556.882812 275.054688 555.933594 275.667969 555.015625 C 276.285156 554.09375 276.941406 553.207031 277.640625 552.355469 C 278.34375 551.5 279.085938 550.679688 279.867188 549.898438 C 280.648438 549.117188 281.46875 548.375 282.320312 547.675781 C 283.175781 546.972656 284.0625 546.316406 284.980469 545.703125 C 285.902344 545.089844 286.847656 544.519531 287.824219 544 C 288.796875 543.476562 289.796875 543.007812 290.816406 542.582031 C 291.839844 542.160156 292.878906 541.789062 293.9375 541.46875 C 294.996094 541.144531 296.066406 540.878906 297.148438 540.660156 C 298.234375 540.445312 299.328125 540.285156 300.425781 540.175781 C 301.527344 540.066406 302.628906 540.011719 303.734375 540.011719 C 304.839844 540.011719 305.941406 540.066406 307.042969 540.175781 C 308.144531 540.285156 309.234375 540.445312 310.320312 540.664062 C 311.402344 540.878906 312.476562 541.144531 313.53125 541.46875 C 314.589844 541.789062 315.628906 542.160156 316.652344 542.582031 C 317.671875 543.007812 318.671875 543.476562 319.644531 544 C 320.621094 544.519531 321.570312 545.089844 322.488281 545.703125 C 323.40625 546.316406 324.292969 546.972656 325.148438 547.675781 C 326.003906 548.375 326.820312 549.117188 327.601562 549.898438 C 328.382812 550.679688 329.125 551.5 329.828125 552.355469 C 330.527344 553.207031 331.1875 554.09375 331.800781 555.015625 C 332.414062 555.933594 332.980469 556.882812 333.503906 557.855469 C 334.023438 558.832031 334.496094 559.828125 334.917969 560.851562 C 335.34375 561.871094 335.714844 562.910156 336.035156 563.96875 C 336.355469 565.027344 336.625 566.097656 336.839844 567.183594 C 337.054688 568.265625 337.21875 569.359375 337.328125 570.460938 C 337.433594 571.558594 337.488281 572.664062 337.488281 573.769531 C 337.488281 574.875 337.433594 575.976562 337.328125 577.074219 C 337.21875 578.175781 337.054688 579.269531 336.839844 580.351562 C 336.625 581.4375 336.355469 582.507812 336.035156 583.566406 C 335.714844 584.625 335.34375 585.664062 334.917969 586.683594 C 334.496094 587.707031 334.023438 588.703125 333.503906 589.679688 C 332.980469 590.652344 332.414062 591.601562 331.800781 592.519531 C 331.1875 593.441406 330.527344 594.328125 329.828125 595.179688 C 329.125 596.035156 328.382812 596.855469 327.601562 597.636719 C 326.820312 598.417969 326.003906 599.160156 325.148438 599.859375 C 324.292969 600.5625 323.40625 601.21875 322.488281 601.832031 C 321.570312 602.449219 320.621094 603.015625 319.644531 603.535156 C 318.671875 604.058594 317.671875 604.527344 316.652344 604.953125 C 315.628906 605.375 314.589844 605.746094 313.53125 606.066406 C 312.476562 606.390625 311.402344 606.65625 310.320312 606.875 C 309.234375 607.089844 308.144531 607.25 307.042969 607.359375 C 305.941406 607.46875 304.839844 607.523438 303.734375 607.523438 C 302.628906 607.523438 301.527344 607.46875 300.425781 607.359375 C 299.328125 607.25 298.234375 607.089844 297.148438 606.875 C 296.066406 606.65625 294.996094 606.390625 293.9375 606.066406 C 292.878906 605.746094 291.839844 605.375 290.816406 604.953125 C 289.796875 604.527344 288.796875 604.058594 287.824219 603.535156 C 286.847656 603.015625 285.902344 602.449219 284.980469 601.832031 C 284.0625 601.21875 283.175781 600.5625 282.320312 599.859375 C 281.46875 599.160156 280.648438 598.417969 279.867188 597.636719 C 279.085938 596.855469 278.34375 596.035156 277.640625 595.179688 C 276.941406 594.328125 276.285156 593.441406 275.667969 592.519531 C 275.054688 591.601562 274.488281 590.652344 273.964844 589.679688 C 273.445312 588.703125 272.972656 587.707031 272.550781 586.683594 C 272.128906 585.664062 271.753906 584.625 271.433594 583.566406 C 271.113281 582.507812 270.84375 581.4375 270.628906 580.351562 C 270.414062 579.269531 270.25 578.175781 270.144531 577.074219 C 270.035156 575.976562 269.980469 574.875 269.980469 573.769531 Z M 359.992188 713.082031 L 346.085938 720.035156 L 261.382812 720.035156 L 247.476562 713.082031 L 247.476562 686.28125 C 247.480469 684.4375 247.570312 682.601562 247.75 680.769531 C 247.933594 678.9375 248.203125 677.117188 248.5625 675.308594 C 248.921875 673.503906 249.371094 671.71875 249.90625 669.957031 C 250.441406 668.195312 251.0625 666.460938 251.769531 664.761719 C 252.472656 663.058594 253.261719 661.398438 254.128906 659.773438 C 255 658.148438 255.945312 656.570312 256.96875 655.039062 C 257.992188 653.507812 259.089844 652.03125 260.257812 650.609375 C 261.425781 649.183594 262.664062 647.820312 263.964844 646.519531 C 265.269531 645.21875 266.632812 643.980469 268.054688 642.8125 C 269.480469 641.644531 270.957031 640.550781 272.488281 639.527344 C 274.019531 638.503906 275.597656 637.558594 277.222656 636.691406 C 278.847656 635.824219 280.511719 635.035156 282.210938 634.332031 C 283.914062 633.628906 285.648438 633.007812 287.410156 632.472656 C 289.171875 631.9375 290.957031 631.492188 292.761719 631.132812 C 294.570312 630.773438 296.390625 630.503906 298.222656 630.324219 C 300.054688 630.140625 301.894531 630.050781 303.734375 630.050781 C 305.578125 630.050781 307.414062 630.140625 309.246094 630.324219 C 311.082031 630.503906 312.898438 630.773438 314.707031 631.132812 C 316.511719 631.492188 318.296875 631.9375 320.058594 632.472656 C 321.824219 633.007812 323.554688 633.628906 325.257812 634.332031 C 326.957031 635.035156 328.621094 635.824219 330.246094 636.691406 C 331.871094 637.558594 333.449219 638.503906 334.980469 639.527344 C 336.511719 640.550781 337.992188 641.644531 339.414062 642.8125 C 340.839844 643.980469 342.203125 645.21875 343.503906 646.519531 C 344.808594 647.820312 346.042969 649.183594 347.210938 650.609375 C 348.382812 652.03125 349.476562 653.507812 350.5 655.039062 C 351.523438 656.570312 352.472656 658.148438 353.339844 659.773438 C 354.207031 661.398438 354.996094 663.058594 355.703125 664.761719 C 356.40625 666.460938 357.027344 668.195312 357.5625 669.957031 C 358.097656 671.71875 358.546875 673.503906 358.90625 675.308594 C 359.265625 677.117188 359.535156 678.9375 359.71875 680.769531 C 359.898438 682.601562 359.992188 684.4375 359.992188 686.28125 Z M 359.992188 713.082031 " fill-opacity="1" fill-rule="nonzero"/></g><g clip-path="url(#9a1f09c725)"><path fill="#0058ca" d="M 700.019531 616.433594 C 700.75 615.816406 701.460938 615.183594 702.160156 614.535156 C 702.859375 613.882812 703.539062 613.214844 704.203125 612.53125 C 704.867188 611.84375 705.511719 611.140625 706.140625 610.425781 C 706.765625 609.707031 707.375 608.972656 707.964844 608.222656 C 708.558594 607.472656 709.128906 606.710938 709.679688 605.929688 C 710.230469 605.152344 710.761719 604.359375 711.273438 603.554688 C 711.785156 602.75 712.277344 601.929688 712.746094 601.101562 C 713.214844 600.269531 713.664062 599.429688 714.089844 598.574219 C 714.515625 597.722656 714.921875 596.859375 715.304688 595.984375 C 715.6875 595.109375 716.046875 594.226562 716.386719 593.335938 C 716.722656 592.441406 717.039062 591.542969 717.332031 590.636719 C 717.625 589.726562 717.894531 588.8125 718.136719 587.890625 C 718.382812 586.96875 718.605469 586.039062 718.804688 585.105469 C 719.003906 584.171875 719.179688 583.234375 719.328125 582.292969 C 719.480469 581.351562 719.605469 580.40625 719.707031 579.457031 C 719.8125 578.507812 719.890625 577.558594 719.945312 576.605469 C 720 575.652344 720.027344 574.699219 720.035156 573.746094 C 720.039062 572.792969 720.023438 571.839844 719.980469 570.886719 C 719.9375 569.933594 719.871094 568.980469 719.777344 568.03125 C 719.6875 567.082031 719.570312 566.136719 719.433594 565.191406 C 719.292969 564.246094 719.128906 563.308594 718.941406 562.371094 C 718.757812 561.4375 718.546875 560.507812 718.3125 559.582031 C 718.078125 558.65625 717.820312 557.738281 717.539062 556.828125 C 717.257812 555.914062 716.953125 555.011719 716.625 554.113281 C 716.296875 553.21875 715.949219 552.332031 715.574219 551.453125 C 715.203125 550.574219 714.808594 549.707031 714.394531 548.847656 C 713.976562 547.988281 713.539062 547.140625 713.078125 546.304688 C 712.617188 545.46875 712.136719 544.644531 711.636719 543.835938 C 711.136719 543.023438 710.613281 542.222656 710.070312 541.4375 C 709.53125 540.652344 708.96875 539.882812 708.386719 539.125 C 707.804688 538.371094 707.203125 537.628906 706.585938 536.902344 C 705.96875 536.175781 705.328125 535.46875 704.675781 534.773438 C 704.019531 534.078125 703.347656 533.402344 702.65625 532.742188 C 701.96875 532.085938 701.261719 531.441406 700.539062 530.820312 C 699.816406 530.195312 699.078125 529.589844 698.328125 529.003906 C 697.574219 528.421875 696.808594 527.855469 696.023438 527.308594 C 695.242188 526.761719 694.449219 526.234375 693.640625 525.726562 C 692.832031 525.21875 692.011719 524.734375 691.175781 524.269531 C 690.34375 523.804688 689.5 523.363281 688.644531 522.941406 C 687.785156 522.519531 686.921875 522.121094 686.042969 521.742188 C 685.167969 521.363281 684.285156 521.007812 683.390625 520.675781 C 682.496094 520.34375 681.59375 520.035156 680.683594 519.746094 C 679.773438 519.460938 678.855469 519.199219 677.933594 518.957031 C 677.007812 518.71875 676.082031 518.5 675.144531 518.308594 C 674.210938 518.117188 673.273438 517.945312 672.332031 517.800781 C 671.386719 517.65625 670.441406 517.535156 669.492188 517.4375 C 668.542969 517.339844 667.59375 517.269531 666.640625 517.21875 C 665.6875 517.171875 664.734375 517.148438 663.777344 517.148438 C 662.824219 517.148438 661.871094 517.171875 660.917969 517.21875 C 659.964844 517.269531 659.015625 517.339844 658.066406 517.4375 C 657.117188 517.535156 656.171875 517.65625 655.226562 517.800781 C 654.285156 517.945312 653.34375 518.117188 652.410156 518.308594 C 651.476562 518.5 650.546875 518.71875 649.625 518.957031 C 648.699219 519.199219 647.785156 519.460938 646.875 519.746094 C 645.964844 520.035156 645.0625 520.34375 644.167969 520.675781 C 643.273438 521.007812 642.386719 521.363281 641.511719 521.742188 C 640.636719 522.121094 639.769531 522.519531 638.914062 522.941406 C 638.058594 523.363281 637.214844 523.804688 636.378906 524.269531 C 635.546875 524.734375 634.726562 525.21875 633.917969 525.726562 C 633.109375 526.234375 632.3125 526.761719 631.53125 527.308594 C 630.75 527.855469 629.984375 528.421875 629.230469 529.007812 C 628.476562 529.589844 627.738281 530.195312 627.015625 530.820312 C 626.296875 531.441406 625.589844 532.085938 624.898438 532.742188 C 624.210938 533.402344 623.539062 534.078125 622.882812 534.773438 C 622.226562 535.46875 621.589844 536.175781 620.972656 536.902344 C 620.351562 537.628906 619.753906 538.371094 619.171875 539.125 C 618.589844 539.882812 618.027344 540.652344 617.484375 541.4375 C 616.945312 542.222656 616.421875 543.023438 615.921875 543.835938 C 615.417969 544.644531 614.9375 545.46875 614.480469 546.304688 C 614.019531 547.140625 613.582031 547.988281 613.164062 548.847656 C 612.746094 549.707031 612.355469 550.574219 611.980469 551.453125 C 611.609375 552.332031 611.257812 553.21875 610.933594 554.113281 C 610.605469 555.011719 610.300781 555.914062 610.019531 556.828125 C 609.738281 557.738281 609.480469 558.65625 609.246094 559.582031 C 609.011719 560.507812 608.800781 561.4375 608.613281 562.371094 C 608.425781 563.308594 608.265625 564.246094 608.125 565.191406 C 607.984375 566.136719 607.871094 567.082031 607.777344 568.03125 C 607.6875 568.980469 607.621094 569.933594 607.578125 570.886719 C 607.535156 571.839844 607.515625 572.792969 607.523438 573.746094 C 607.527344 574.699219 607.558594 575.652344 607.613281 576.605469 C 607.667969 577.558594 607.746094 578.507812 607.847656 579.457031 C 607.949219 580.40625 608.078125 581.351562 608.230469 582.292969 C 608.378906 583.234375 608.554688 584.171875 608.753906 585.105469 C 608.949219 586.039062 609.171875 586.96875 609.417969 587.890625 C 609.664062 588.8125 609.933594 589.726562 610.226562 590.636719 C 610.519531 591.542969 610.832031 592.441406 611.171875 593.335938 C 611.507812 594.226562 611.871094 595.109375 612.253906 595.984375 C 612.636719 596.859375 613.039062 597.722656 613.46875 598.574219 C 613.894531 599.429688 614.34375 600.269531 614.8125 601.101562 C 615.28125 601.929688 615.773438 602.75 616.285156 603.554688 C 616.792969 604.359375 617.324219 605.152344 617.878906 605.929688 C 618.429688 606.707031 619 607.472656 619.589844 608.222656 C 620.179688 608.972656 620.789062 609.707031 621.417969 610.425781 C 622.046875 611.140625 622.691406 611.84375 623.355469 612.53125 C 624.019531 613.214844 624.699219 613.882812 625.398438 614.535156 C 626.09375 615.183594 626.808594 615.816406 627.539062 616.433594 C 625.945312 617.257812 624.386719 618.136719 622.855469 619.066406 C 621.324219 619.996094 619.828125 620.980469 618.363281 622.011719 C 616.898438 623.046875 615.472656 624.128906 614.082031 625.257812 C 612.691406 626.390625 611.339844 627.566406 610.03125 628.789062 C 608.722656 630.011719 607.453125 631.277344 606.230469 632.585938 C 605.007812 633.898438 603.832031 635.246094 602.699219 636.636719 C 601.566406 638.023438 600.484375 639.453125 599.453125 640.914062 C 598.417969 642.378906 597.433594 643.875 596.503906 645.40625 C 595.570312 646.9375 594.691406 648.496094 593.867188 650.089844 C 593.042969 651.679688 592.273438 653.296875 591.558594 654.9375 C 590.84375 656.582031 590.183594 658.246094 589.582031 659.9375 C 588.984375 661.625 588.441406 663.332031 587.953125 665.054688 C 587.46875 666.78125 587.042969 668.519531 586.679688 670.273438 C 586.3125 672.027344 586.007812 673.792969 585.761719 675.566406 C 585.515625 677.34375 585.332031 679.125 585.207031 680.910156 C 585.082031 682.699219 585.019531 684.488281 585.019531 686.28125 L 585.019531 720.035156 C 585.011719 721.085938 585.152344 722.117188 585.433594 723.128906 C 585.71875 724.140625 586.132812 725.09375 586.683594 725.988281 C 587.234375 726.882812 587.894531 727.683594 588.671875 728.394531 C 589.445312 729.101562 590.300781 729.691406 591.242188 730.160156 L 613.742188 741.414062 C 615.332031 742.183594 617.007812 742.558594 618.773438 742.539062 L 708.785156 742.539062 C 710.546875 742.558594 712.226562 742.183594 713.8125 741.414062 L 736.316406 730.160156 C 737.253906 729.691406 738.113281 729.101562 738.886719 728.394531 C 739.660156 727.683594 740.324219 726.882812 740.875 725.988281 C 741.421875 725.09375 741.839844 724.140625 742.121094 723.128906 C 742.40625 722.117188 742.542969 721.085938 742.539062 720.035156 L 742.539062 686.28125 C 742.535156 684.488281 742.472656 682.699219 742.347656 680.910156 C 742.226562 679.125 742.039062 677.34375 741.796875 675.566406 C 741.550781 673.792969 741.246094 672.027344 740.878906 670.273438 C 740.511719 668.519531 740.085938 666.78125 739.601562 665.054688 C 739.117188 663.332031 738.574219 661.625 737.972656 659.9375 C 737.371094 658.246094 736.714844 656.582031 736 654.9375 C 735.285156 653.296875 734.515625 651.679688 733.6875 650.089844 C 732.863281 648.496094 731.984375 646.9375 731.054688 645.40625 C 730.121094 643.875 729.140625 642.378906 728.105469 640.914062 C 727.070312 639.453125 725.988281 638.023438 724.859375 636.636719 C 723.726562 635.246094 722.550781 633.898438 721.324219 632.585938 C 720.101562 631.277344 718.835938 630.011719 717.527344 628.789062 C 716.214844 627.566406 714.867188 626.390625 713.476562 625.257812 C 712.085938 624.128906 710.660156 623.046875 709.195312 622.011719 C 707.730469 620.980469 706.234375 619.996094 704.703125 619.066406 C 703.171875 618.136719 701.609375 617.257812 700.019531 616.433594 Z M 630.023438 573.769531 C 630.023438 572.664062 630.078125 571.558594 630.1875 570.460938 C 630.296875 569.359375 630.457031 568.265625 630.671875 567.183594 C 630.890625 566.097656 631.15625 565.027344 631.476562 563.96875 C 631.800781 562.910156 632.171875 561.871094 632.59375 560.851562 C 633.015625 559.828125 633.488281 558.832031 634.011719 557.855469 C 634.53125 556.882812 635.097656 555.933594 635.714844 555.015625 C 636.328125 554.09375 636.984375 553.207031 637.6875 552.355469 C 638.386719 551.5 639.128906 550.679688 639.910156 549.898438 C 640.691406 549.117188 641.511719 548.375 642.363281 547.675781 C 643.21875 546.972656 644.105469 546.316406 645.027344 545.703125 C 645.945312 545.089844 646.890625 544.519531 647.867188 544 C 648.84375 543.476562 649.839844 543.007812 650.863281 542.582031 C 651.882812 542.160156 652.921875 541.789062 653.980469 541.46875 C 655.039062 541.144531 656.109375 540.878906 657.195312 540.660156 C 658.277344 540.445312 659.371094 540.285156 660.46875 540.175781 C 661.570312 540.066406 662.671875 540.011719 663.777344 540.011719 C 664.882812 540.011719 665.988281 540.066406 667.085938 540.175781 C 668.1875 540.285156 669.28125 540.445312 670.363281 540.664062 C 671.449219 540.878906 672.519531 541.144531 673.578125 541.46875 C 674.632812 541.789062 675.675781 542.160156 676.695312 542.582031 C 677.71875 543.007812 678.714844 543.476562 679.691406 544 C 680.664062 544.519531 681.613281 545.089844 682.53125 545.703125 C 683.449219 546.316406 684.335938 546.972656 685.191406 547.675781 C 686.046875 548.375 686.863281 549.117188 687.644531 549.898438 C 688.429688 550.679688 689.167969 551.5 689.871094 552.355469 C 690.570312 553.207031 691.230469 554.09375 691.84375 555.015625 C 692.457031 555.933594 693.027344 556.882812 693.546875 557.855469 C 694.066406 558.832031 694.539062 559.828125 694.964844 560.851562 C 695.386719 561.871094 695.757812 562.910156 696.078125 563.96875 C 696.398438 565.027344 696.667969 566.097656 696.882812 567.183594 C 697.101562 568.265625 697.261719 569.359375 697.371094 570.460938 C 697.476562 571.558594 697.53125 572.664062 697.53125 573.769531 C 697.53125 574.875 697.476562 575.976562 697.371094 577.074219 C 697.261719 578.175781 697.101562 579.269531 696.882812 580.351562 C 696.667969 581.4375 696.398438 582.507812 696.078125 583.566406 C 695.757812 584.625 695.386719 585.664062 694.964844 586.683594 C 694.539062 587.707031 694.066406 588.703125 693.546875 589.679688 C 693.027344 590.652344 692.457031 591.601562 691.84375 592.519531 C 691.230469 593.441406 690.570312 594.328125 689.871094 595.179688 C 689.167969 596.035156 688.429688 596.855469 687.644531 597.636719 C 686.863281 598.417969 686.046875 599.160156 685.191406 599.859375 C 684.335938 600.5625 683.449219 601.21875 682.53125 601.832031 C 681.613281 602.449219 680.664062 603.015625 679.691406 603.535156 C 678.714844 604.058594 677.71875 604.527344 676.695312 604.953125 C 675.675781 605.375 674.632812 605.746094 673.578125 606.066406 C 672.519531 606.390625 671.449219 606.65625 670.363281 606.875 C 669.28125 607.089844 668.1875 607.25 667.085938 607.359375 C 665.988281 607.46875 664.882812 607.523438 663.777344 607.523438 C 662.671875 607.523438 661.570312 607.46875 660.46875 607.359375 C 659.371094 607.25 658.277344 607.089844 657.195312 606.875 C 656.109375 606.65625 655.039062 606.390625 653.980469 606.066406 C 652.921875 605.746094 651.882812 605.375 650.863281 604.953125 C 649.839844 604.527344 648.84375 604.058594 647.867188 603.535156 C 646.890625 603.015625 645.945312 602.449219 645.027344 601.832031 C 644.105469 601.21875 643.21875 600.5625 642.363281 599.859375 C 641.511719 599.160156 640.691406 598.417969 639.910156 597.636719 C 639.128906 596.855469 638.386719 596.035156 637.6875 595.179688 C 636.984375 594.328125 636.328125 593.441406 635.714844 592.519531 C 635.097656 591.601562 634.53125 590.652344 634.011719 589.679688 C 633.488281 588.703125 633.015625 587.707031 632.59375 586.683594 C 632.171875 585.664062 631.800781 584.625 631.476562 583.566406 C 631.15625 582.507812 630.890625 581.4375 630.671875 580.351562 C 630.457031 579.269531 630.296875 578.175781 630.1875 577.074219 C 630.078125 575.976562 630.023438 574.875 630.023438 573.769531 Z M 720.035156 713.082031 L 706.128906 720.035156 L 621.429688 720.035156 L 607.523438 713.082031 L 607.523438 686.28125 C 607.523438 684.4375 607.613281 682.601562 607.792969 680.765625 C 607.972656 678.933594 608.242188 677.113281 608.601562 675.304688 C 608.960938 673.5 609.410156 671.714844 609.945312 669.949219 C 610.480469 668.1875 611.097656 666.453125 611.804688 664.753906 C 612.507812 663.050781 613.296875 661.386719 614.164062 659.761719 C 615.03125 658.136719 615.980469 656.558594 617.003906 655.027344 C 618.027344 653.496094 619.121094 652.015625 620.292969 650.59375 C 621.460938 649.167969 622.695312 647.804688 624 646.5 C 625.300781 645.199219 626.664062 643.964844 628.089844 642.792969 C 629.515625 641.625 630.992188 640.527344 632.523438 639.503906 C 634.054688 638.480469 635.632812 637.535156 637.257812 636.667969 C 638.882812 635.796875 640.546875 635.011719 642.25 634.308594 C 643.953125 633.601562 645.683594 632.980469 647.449219 632.445312 C 649.210938 631.910156 650.996094 631.464844 652.804688 631.105469 C 654.609375 630.746094 656.429688 630.476562 658.265625 630.296875 C 660.097656 630.113281 661.9375 630.023438 663.777344 630.023438 C 665.621094 630.023438 667.460938 630.113281 669.292969 630.296875 C 671.125 630.476562 672.945312 630.746094 674.753906 631.105469 C 676.5625 631.464844 678.347656 631.910156 680.109375 632.445312 C 681.871094 632.980469 683.605469 633.601562 685.308594 634.308594 C 687.007812 635.011719 688.671875 635.796875 690.296875 636.667969 C 691.921875 637.535156 693.5 638.480469 695.03125 639.503906 C 696.566406 640.527344 698.042969 641.625 699.46875 642.792969 C 700.890625 643.964844 702.253906 645.199219 703.558594 646.5 C 704.859375 647.804688 706.097656 649.167969 707.265625 650.59375 C 708.433594 652.015625 709.53125 653.496094 710.554688 655.027344 C 711.578125 656.558594 712.523438 658.136719 713.394531 659.761719 C 714.261719 661.386719 715.046875 663.050781 715.753906 664.753906 C 716.457031 666.453125 717.078125 668.1875 717.613281 669.949219 C 718.148438 671.714844 718.59375 673.5 718.953125 675.304688 C 719.3125 677.113281 719.582031 678.933594 719.765625 680.765625 C 719.945312 682.601562 720.035156 684.4375 720.035156 686.28125 Z M 720.035156 713.082031 " fill-opacity="1" fill-rule="nonzero"/></g></svg>