<svg xmlns="http://www.w3.org/2000/svg" xmlns:xlink="http://www.w3.org/1999/xlink" width="1080" zoomAndPan="magnify" viewBox="0 0 810 809.999993" height="1080" preserveAspectRatio="xMidYMid meet" version="1.0"><defs><clipPath id="05e24775ff"><path d="M 15 299 L 797.417969 299 L 797.417969 512.605469 L 15 512.605469 Z M 15 299 " clip-rule="nonzero"/></clipPath><clipPath id="3f6237f12c"><path d="M 12.917969 297.355469 L 787 297.355469 L 787 501 L 12.917969 501 Z M 12.917969 297.355469 " clip-rule="nonzero"/></clipPath></defs><g clip-path="url(#05e24775ff)"><path fill="#0058ca" d="M 137.753906 367.207031 C 131.316406 365.871094 124.976562 364.164062 118.742188 362.078125 C 112.554688 359.84375 106.179688 358.515625 99.617188 358.101562 C 89.691406 358.101562 84.734375 361.925781 84.734375 369.347656 C 84.753906 372.832031 85.660156 376.074219 87.453125 379.0625 C 87.535156 379.207031 87.644531 379.328125 87.777344 379.425781 C 89.734375 380.863281 91.929688 381.585938 94.355469 381.589844 C 102.007812 381.277344 109.28125 379.460938 116.179688 376.136719 C 128.746094 370.667969 135.859375 367.703125 137.675781 367.207031 Z M 316.960938 379.597656 C 309.972656 376.929688 302.792969 374.949219 295.421875 373.664062 C 288.050781 372.375 280.625 371.804688 273.144531 371.949219 C 265.953125 371.949219 260.980469 372.464844 258.207031 373.613281 C 258.066406 373.671875 257.945312 373.757812 257.84375 373.871094 C 257.742188 373.988281 257.667969 374.117188 257.628906 374.265625 C 257.585938 374.414062 257.582031 374.5625 257.609375 374.714844 C 257.636719 374.863281 257.695312 375 257.785156 375.125 C 260.230469 377.71875 262.929688 380.023438 265.878906 382.027344 C 270.890625 385.851562 275.679688 389.9375 280.242188 394.289062 C 280.394531 394.433594 280.574219 394.519531 280.78125 394.546875 C 280.988281 394.574219 281.183594 394.539062 281.367188 394.441406 C 292.886719 388.664062 304.75 383.714844 316.960938 379.597656 Z M 533.734375 433.515625 C 532.105469 432.539062 530.683594 431.320312 529.46875 429.863281 C 529.316406 429.699219 529.132812 429.601562 528.914062 429.5625 C 528.699219 429.519531 528.488281 429.546875 528.289062 429.644531 C 528.09375 429.742188 527.941406 429.886719 527.835938 430.082031 C 527.734375 430.277344 527.699219 430.484375 527.730469 430.703125 C 528.023438 432.296875 528.484375 433.839844 529.105469 435.332031 C 530.273438 437.972656 531.421875 439.464844 532.585938 439.464844 C 533.238281 439.464844 533.734375 437.550781 533.734375 433.515625 Z M 357.777344 399.089844 C 357.871094 402.003906 357.609375 404.886719 356.992188 407.738281 C 356.378906 410.585938 355.429688 413.320312 354.144531 415.9375 C 351.332031 421.90625 347.199219 425.042969 341.902344 425.042969 C 339.601562 425.0625 337.320312 424.878906 335.054688 424.488281 C 334.90625 424.457031 334.757812 424.460938 334.609375 424.5 C 334.464844 424.539062 334.332031 424.609375 334.21875 424.710938 C 334.105469 424.816406 334.023438 424.9375 333.96875 425.078125 C 333.910156 425.222656 333.890625 425.367188 333.90625 425.519531 C 334.023438 427.433594 334.136719 429.34375 334.136719 431.257812 C 334.136719 440.191406 332.988281 445.8125 331 448.28125 C 312.964844 468.628906 296.113281 478.710938 280.394531 478.710938 C 278.808594 478.722656 277.253906 478.527344 275.722656 478.117188 C 274.191406 477.710938 272.742188 477.105469 271.375 476.308594 C 270.007812 475.507812 268.773438 474.539062 267.667969 473.40625 C 266.5625 472.273438 265.628906 471.011719 264.863281 469.625 C 263.230469 467.054688 262.003906 464.304688 261.1875 461.375 C 260.371094 458.441406 259.996094 455.453125 260.0625 452.410156 C 260.0625 443 262.359375 431.371094 266.96875 417.390625 C 267.035156 417.183594 267.039062 416.976562 266.972656 416.765625 C 266.90625 416.554688 266.785156 416.386719 266.609375 416.253906 C 266.433594 416.125 266.234375 416.058594 266.015625 416.054688 C 265.796875 416.054688 265.597656 416.117188 265.417969 416.246094 C 256.753906 423.253906 248.574219 430.789062 240.878906 438.851562 C 226.996094 452.582031 216.894531 462.011719 210.792969 467.136719 C 199.320312 476.222656 190.292969 480.699219 183.003906 480.699219 C 177.554688 480.699219 172.925781 478.210938 168.792969 473.046875 C 166.824219 470.554688 165.328125 467.808594 164.304688 464.800781 C 163.28125 461.796875 162.789062 458.703125 162.828125 455.527344 C 162.828125 447.09375 165.484375 436.671875 170.9375 424.429688 C 169.839844 424.621094 168.738281 424.734375 167.628906 424.773438 C 165.285156 424.792969 162.957031 424.601562 160.648438 424.199219 C 160.488281 424.175781 160.335938 424.1875 160.183594 424.234375 C 160.03125 424.28125 159.894531 424.359375 159.777344 424.46875 C 159.660156 424.574219 159.574219 424.703125 159.515625 424.851562 C 159.457031 424.996094 159.429688 425.152344 159.441406 425.308594 C 159.574219 427.433594 159.691406 429.441406 159.691406 431.21875 C 159.691406 439.980469 158.695312 445.277344 156.554688 447.417969 C 135.9375 468.074219 119.066406 478.328125 106.003906 478.328125 C 104.445312 478.378906 102.90625 478.230469 101.386719 477.878906 C 99.867188 477.527344 98.417969 476.984375 97.039062 476.253906 C 95.664062 475.519531 94.402344 474.625 93.261719 473.5625 C 92.117188 472.5 91.132812 471.308594 90.300781 469.988281 C 88.585938 467.101562 87.320312 464.03125 86.503906 460.777344 C 85.683594 457.519531 85.351562 454.214844 85.5 450.863281 C 85.988281 444.644531 87.03125 438.527344 88.636719 432.5 C 90.445312 424.78125 91.4375 416.960938 91.621094 409.035156 C 91.601562 403.804688 90.960938 398.65625 89.707031 393.582031 C 89.613281 393.191406 89.371094 392.941406 88.980469 392.835938 C 84.199219 391.554688 79.09375 387.957031 73.851562 382.066406 C 68.402344 375.792969 64.769531 372.65625 63.105469 372.65625 C 60.617188 372.65625 57.15625 376.289062 52.355469 383.730469 C 48.9375 389.121094 45.976562 394.75 43.460938 400.617188 C 43.378906 400.804688 43.371094 400.992188 43.4375 401.183594 C 43.503906 401.375 43.625 401.519531 43.808594 401.613281 C 52.910156 406.835938 57.652344 417.71875 58.035156 434.128906 C 58.039062 434.417969 57.984375 434.699219 57.875 434.96875 C 57.765625 435.242188 57.609375 435.480469 57.40625 435.6875 C 57.203125 435.894531 56.964844 436.058594 56.695312 436.171875 C 56.429688 436.285156 56.148438 436.34375 55.855469 436.34375 L 55.453125 436.34375 C 55.09375 436.34375 54.753906 436.253906 54.441406 436.078125 C 50.003906 433.707031 45.566406 431.335938 41.28125 429.117188 L 41.128906 429 C 40.15625 428.242188 39.28125 427.382812 38.5 426.425781 C 37.722656 425.46875 37.058594 424.4375 36.507812 423.332031 C 35.957031 422.226562 35.539062 421.074219 35.246094 419.875 C 34.953125 418.675781 34.800781 417.460938 34.78125 416.226562 C 34.765625 416.054688 34.714844 415.902344 34.621094 415.757812 C 34.53125 415.613281 34.410156 415.503906 34.261719 415.417969 C 34.113281 415.335938 33.957031 415.292969 33.785156 415.292969 C 33.617188 415.289062 33.457031 415.324219 33.304688 415.402344 C 23.742188 420.433594 18.867188 426.878906 18.867188 434.683594 C 18.867188 435.847656 23.167969 446.15625 31.929688 465.78125 C 40.6875 485.402344 45.164062 500.992188 45.164062 512.5625 L 43.671875 512.5625 C 42.679688 505.621094 37.726562 492.554688 28.371094 473.375 C 19.765625 455.355469 15.308594 442.292969 15.308594 434.03125 C 15.308594 422.554688 22.175781 411.828125 35.753906 402.261719 C 35.894531 402.167969 35.996094 402.039062 36.0625 401.878906 C 39.609375 393.554688 44.070312 385.75 49.449219 378.472656 C 57.710938 366.726562 64.175781 360.933594 68.574219 360.933594 C 70.71875 360.933594 74.867188 364.910156 81.3125 372.847656 C 80.726562 370.738281 80.453125 368.589844 80.488281 366.402344 C 80.476562 365.710938 80.496094 365.023438 80.550781 364.335938 C 80.605469 363.648438 80.695312 362.964844 80.820312 362.285156 C 80.945312 361.609375 81.105469 360.9375 81.300781 360.273438 C 81.492188 359.613281 81.71875 358.960938 81.980469 358.324219 C 82.238281 357.683594 82.53125 357.058594 82.855469 356.449219 C 83.175781 355.839844 83.53125 355.25 83.914062 354.675781 C 84.296875 354.101562 84.710938 353.550781 85.148438 353.015625 C 85.589844 352.484375 86.054688 351.976562 86.546875 351.492188 C 87.039062 351.011719 87.554688 350.550781 88.09375 350.121094 C 88.628906 349.6875 89.1875 349.285156 89.769531 348.910156 C 90.347656 348.535156 90.945312 348.191406 91.558594 347.878906 C 92.171875 347.566406 92.800781 347.28125 93.445312 347.03125 C 94.089844 346.785156 94.742188 346.566406 95.410156 346.382812 C 96.074219 346.199219 96.746094 346.050781 97.425781 345.9375 C 98.109375 345.824219 98.792969 345.742188 99.480469 345.699219 C 100.167969 345.652344 100.859375 345.644531 101.546875 345.671875 C 105.679688 345.671875 114.285156 347.8125 127.175781 351.960938 C 137.703125 355.675781 148.542969 357.8125 159.691406 358.371094 C 160.078125 358.375 160.367188 358.550781 160.550781 358.894531 C 160.734375 359.234375 160.722656 359.570312 160.511719 359.898438 L 153.417969 371.261719 C 153.277344 371.511719 153.066406 371.664062 152.785156 371.71875 C 146.644531 372.960938 136.855469 376.902344 123.425781 383.691406 C 111.1875 389.984375 101.109375 393.121094 93.496094 393.121094 C 92.605469 393.085938 91.726562 392.980469 90.855469 392.796875 C 92.96875 399.527344 94.011719 406.417969 93.992188 413.472656 C 93.894531 420.105469 93.121094 426.65625 91.679688 433.132812 C 90.035156 440.246094 89.191406 444.226562 89.191406 445.046875 C 89.191406 459.257812 94.929688 466.546875 106.730469 466.546875 C 115.316406 466.546875 125.226562 462.089844 136.300781 453.5 C 142.9375 447.667969 149.417969 441.683594 155.902344 435.523438 C 156.144531 435.304688 156.261719 435.027344 156.246094 434.699219 C 155.921875 431.546875 154.125 426.746094 150.988281 420.300781 C 149.074219 416.472656 147.296875 412.648438 145.25 408.824219 C 145.132812 408.554688 145.132812 408.289062 145.25 408.019531 L 148.671875 398.554688 C 148.714844 398.332031 148.820312 398.148438 148.988281 397.996094 C 149.152344 397.847656 149.347656 397.765625 149.570312 397.746094 C 149.796875 397.730469 150 397.78125 150.191406 397.902344 C 150.378906 398.023438 150.511719 398.1875 150.585938 398.398438 C 152.804688 402.3125 155.304688 406.035156 158.082031 409.570312 C 159.386719 411.039062 160.925781 412.191406 162.703125 413.023438 C 164.484375 413.851562 166.351562 414.296875 168.316406 414.351562 C 169.355469 414.351562 170.382812 414.230469 171.398438 413.996094 C 172.410156 413.761719 173.382812 413.414062 174.320312 412.957031 C 175.253906 412.5 176.125 411.941406 176.933594 411.289062 C 177.738281 410.632812 178.464844 409.894531 179.101562 409.070312 C 179.300781 408.847656 179.390625 408.585938 179.371094 408.289062 C 178.875 401.671875 178.222656 395.207031 177.457031 389.164062 L 166.363281 318.222656 C 165.996094 314.859375 165.210938 311.597656 164.011719 308.433594 C 163.933594 308.234375 163.933594 308.035156 164.011719 307.839844 L 166.460938 300.742188 C 166.503906 300.523438 166.613281 300.339844 166.78125 300.191406 C 166.949219 300.046875 167.144531 299.964844 167.367188 299.949219 C 167.589844 299.933594 167.792969 299.988281 167.980469 300.109375 C 168.167969 300.230469 168.300781 300.398438 168.375 300.609375 L 178.757812 320.308594 C 178.835938 320.460938 178.875 320.617188 178.875 320.789062 L 178.875 324.84375 L 173.25 319.21875 C 172.859375 320.003906 172.746094 320.824219 172.90625 321.6875 L 183.15625 388.816406 C 183.578125 392.230469 183.746094 395.652344 183.65625 399.089844 C 183.65625 411.769531 180.308594 419.972656 173.59375 423.378906 C 173.367188 423.496094 173.195312 423.667969 173.078125 423.894531 C 171.0625 427.992188 169.496094 432.257812 168.382812 436.683594 C 167.265625 441.113281 166.625 445.609375 166.460938 450.171875 C 166.539062 452.28125 166.992188 454.304688 167.820312 456.242188 C 168.648438 458.179688 169.792969 459.90625 171.261719 461.417969 C 172.011719 462.386719 172.867188 463.257812 173.820312 464.027344 C 174.773438 464.796875 175.804688 465.449219 176.910156 465.980469 C 178.015625 466.511719 179.167969 466.90625 180.363281 467.171875 C 181.5625 467.433594 182.773438 467.558594 184 467.539062 C 191.9375 467.539062 202.015625 461.59375 214.410156 449.503906 L 247.957031 417.46875 C 255.300781 411.292969 263 405.597656 271.058594 400.390625 C 271.195312 400.304688 271.304688 400.191406 271.382812 400.046875 C 271.460938 399.90625 271.5 399.757812 271.5 399.59375 C 271.5 399.433594 271.460938 399.28125 271.382812 399.140625 C 271.304688 399 271.195312 398.886719 271.058594 398.800781 C 269.050781 397.367188 266.105469 395.148438 262.050781 392.03125 C 256.121094 386.929688 253.160156 381.3125 253.160156 375.179688 C 253.160156 364.757812 258.78125 359.632812 270.027344 359.632812 C 291.066406 359.632812 313.578125 363.457031 337.90625 370.992188 C 338.050781 371.039062 338.183594 371.117188 338.292969 371.226562 C 338.40625 371.332031 338.488281 371.457031 338.542969 371.605469 C 338.597656 371.75 338.617188 371.898438 338.601562 372.054688 C 338.589844 372.207031 338.539062 372.351562 338.460938 372.484375 L 331.230469 384.457031 C 331.097656 384.65625 330.921875 384.796875 330.695312 384.878906 C 322.507812 387.515625 308.449219 393.121094 288.3125 401.976562 C 288.175781 402.035156 288.058594 402.121094 287.957031 402.230469 C 287.859375 402.335938 287.78125 402.460938 287.730469 402.597656 C 287.679688 402.738281 287.660156 402.882812 287.667969 403.027344 C 287.675781 403.175781 287.710938 403.316406 287.777344 403.449219 C 289.6875 407.273438 291.753906 414.925781 294.070312 426.609375 C 294.101562 426.769531 294.097656 426.929688 294.054688 427.085938 C 294.015625 427.246094 293.945312 427.386719 293.839844 427.515625 C 293.738281 427.640625 293.609375 427.738281 293.464844 427.808594 C 293.316406 427.875 293.160156 427.910156 292.996094 427.910156 C 282.152344 427.644531 276.796875 424.085938 276.796875 416.855469 C 276.859375 415.234375 277.082031 413.632812 277.46875 412.054688 C 277.71875 410.574219 277.882812 409.082031 277.964844 407.582031 C 275.878906 408.863281 273.507812 410.601562 270.3125 412.648438 C 270.074219 412.800781 269.910156 413.011719 269.816406 413.28125 C 265.4375 427.300781 263.160156 437.914062 263.160156 445.125 C 263.160156 459.507812 269.109375 466.792969 281.023438 466.792969 C 293.839844 466.792969 310.25 456.484375 330.273438 435.582031 C 330.511719 435.335938 330.609375 435.039062 330.5625 434.699219 C 329.433594 429.707031 327.699219 424.929688 325.359375 420.375 L 325.359375 420.28125 C 323.273438 416.609375 321.359375 412.9375 319.621094 409.128906 C 319.511719 408.867188 319.511719 408.605469 319.621094 408.34375 L 323.042969 398.78125 C 323.109375 398.59375 323.21875 398.441406 323.375 398.320312 C 323.527344 398.195312 323.707031 398.128906 323.902344 398.109375 C 324.101562 398.09375 324.285156 398.132812 324.460938 398.226562 C 324.632812 398.320312 324.765625 398.457031 324.859375 398.628906 C 327.082031 402.535156 329.574219 406.257812 332.339844 409.800781 C 333.675781 411.195312 335.226562 412.277344 337 413.046875 C 338.769531 413.816406 340.621094 414.210938 342.550781 414.234375 C 343.578125 414.257812 344.59375 414.15625 345.597656 413.9375 C 346.601562 413.71875 347.566406 413.386719 348.488281 412.941406 C 349.414062 412.5 350.277344 411.953125 351.074219 411.304688 C 351.871094 410.65625 352.582031 409.925781 353.207031 409.109375 C 353.378906 408.882812 353.460938 408.628906 353.453125 408.34375 C 353.109375 401.554688 352.460938 395.089844 351.65625 389.105469 L 340.5625 318.492188 C 340.082031 315.140625 339.207031 311.898438 337.941406 308.757812 C 337.84375 308.507812 337.84375 308.261719 337.941406 308.011719 L 340.390625 300.6875 C 340.433594 300.464844 340.539062 300.28125 340.703125 300.132812 C 340.871094 299.980469 341.066406 299.898438 341.289062 299.878906 C 341.511719 299.863281 341.71875 299.914062 341.90625 300.035156 C 342.09375 300.15625 342.226562 300.320312 342.304688 300.53125 L 352.976562 320.25 C 353.070312 320.398438 353.113281 320.558594 353.109375 320.730469 L 353.109375 324.785156 L 347.488281 319.160156 C 347.113281 320.066406 346.996094 321.003906 347.144531 321.972656 L 357.394531 389.105469 C 357.832031 392.398438 357.996094 395.707031 357.890625 399.03125 Z M 206.816406 403.21875 C 206.953125 399.945312 206.730469 396.691406 206.148438 393.464844 L 195.246094 321.6875 C 195.078125 320.691406 195.242188 319.753906 195.742188 318.875 L 201.195312 324.84375 L 201.195312 320.804688 C 201.195312 320.636719 201.15625 320.476562 201.078125 320.328125 L 190.730469 300.589844 C 190.648438 300.390625 190.511719 300.234375 190.328125 300.121094 C 190.144531 300.007812 189.941406 299.960938 189.726562 299.976562 C 189.511719 299.988281 189.320312 300.066406 189.152344 300.203125 C 188.984375 300.339844 188.875 300.515625 188.820312 300.722656 L 186.273438 307.78125 C 186.164062 308.03125 186.164062 308.277344 186.273438 308.527344 C 187.617188 311.644531 188.492188 314.890625 188.894531 318.261719 L 200.484375 393.65625 C 202.257812 404.0625 202.894531 414.535156 202.398438 425.082031 L 203.71875 425.082031 C 205.859375 419.953125 206.855469 412.667969 206.855469 403.257812 Z M 381.261719 403.21875 C 381.542969 410.691406 380.511719 417.980469 378.164062 425.082031 L 376.671875 425.082031 C 377.261719 414.546875 376.714844 404.070312 375.027344 393.65625 L 363.4375 318.261719 C 363.035156 314.890625 362.160156 311.644531 360.816406 308.527344 C 360.707031 308.277344 360.707031 308.03125 360.816406 307.78125 L 363.363281 300.722656 C 363.417969 300.515625 363.527344 300.339844 363.695312 300.203125 C 363.863281 300.066406 364.054688 299.988281 364.269531 299.976562 C 364.484375 299.960938 364.6875 300.007812 364.871094 300.121094 C 365.054688 300.234375 365.191406 300.390625 365.273438 300.589844 L 375.679688 320.347656 C 375.757812 320.496094 375.792969 320.65625 375.792969 320.824219 L 375.792969 324.878906 L 370.246094 318.894531 C 369.75 319.773438 369.582031 320.710938 369.75 321.707031 L 380.671875 393.484375 C 381.234375 396.710938 381.453125 399.964844 381.320312 403.238281 Z M 478 403.21875 C 478 412.628906 477.007812 419.902344 475.019531 425.042969 L 473.871094 425.042969 C 474.191406 414.507812 473.554688 404.035156 471.957031 393.617188 L 460.484375 318.222656 C 460.105469 314.863281 459.277344 311.621094 457.996094 308.488281 C 457.894531 308.242188 457.894531 307.992188 457.996094 307.742188 L 460.40625 300.722656 C 460.460938 300.515625 460.574219 300.339844 460.742188 300.203125 C 460.90625 300.066406 461.097656 299.988281 461.316406 299.972656 C 461.53125 299.960938 461.730469 300.007812 461.914062 300.121094 C 462.101562 300.234375 462.234375 300.390625 462.320312 300.589844 L 472.722656 320.347656 C 472.800781 320.496094 472.839844 320.65625 472.839844 320.824219 L 472.839844 324.878906 L 467.136719 318.894531 C 466.691406 319.792969 466.582031 320.730469 466.8125 321.707031 L 477.886719 393.425781 C 478.058594 395.339844 478.058594 398.554688 478.058594 403.164062 Z M 797.019531 421.601562 C 797.019531 434.335938 786.273438 443.097656 782.636719 443.097656 C 781.464844 443.121094 780.3125 442.988281 779.179688 442.695312 C 778.042969 442.398438 776.96875 441.957031 775.957031 441.367188 C 774.945312 440.777344 774.03125 440.058594 773.21875 439.214844 C 772.402344 438.375 771.71875 437.4375 771.164062 436.402344 C 770.921875 435.996094 770.589844 435.683594 770.175781 435.460938 C 769.757812 435.234375 769.316406 435.132812 768.84375 435.15625 C 768.371094 435.179688 767.9375 435.320312 767.546875 435.582031 C 767.152344 435.84375 766.851562 436.1875 766.648438 436.613281 C 766.265625 437.570312 765.75 438.445312 765.105469 439.25 C 764.460938 440.050781 763.710938 440.738281 762.859375 441.316406 C 762.007812 441.894531 761.089844 442.335938 760.105469 442.640625 C 759.121094 442.941406 758.117188 443.09375 757.085938 443.097656 C 756.183594 443.117188 755.296875 443.007812 754.429688 442.765625 C 753.558594 442.523438 752.742188 442.160156 751.980469 441.679688 C 751.21875 441.195312 750.542969 440.613281 749.953125 439.929688 C 749.363281 439.246094 748.882812 438.492188 748.519531 437.664062 C 748.421875 437.464844 748.296875 437.28125 748.152344 437.113281 C 748.007812 436.945312 747.839844 436.796875 747.65625 436.671875 C 747.472656 436.546875 747.273438 436.449219 747.066406 436.375 C 746.855469 436.300781 746.640625 436.253906 746.417969 436.238281 C 746.195312 436.222656 745.972656 436.234375 745.753906 436.273438 C 745.535156 436.3125 745.324219 436.378906 745.125 436.476562 C 744.921875 436.570312 744.738281 436.6875 744.566406 436.832031 C 744.394531 436.976562 744.246094 437.140625 744.121094 437.320312 C 743.242188 438.644531 742.210938 439.832031 741.027344 440.890625 C 739.847656 441.945312 738.546875 442.835938 737.136719 443.558594 C 735.726562 444.28125 734.246094 444.816406 732.695312 445.160156 C 731.148438 445.5 729.582031 445.644531 727.996094 445.582031 C 719.886719 445.75 716.246094 441.613281 717.074219 433.171875 C 717.042969 432.121094 717.101562 431.074219 717.246094 430.035156 C 631.316406 450.746094 613.296875 472.742188 538.441406 435.867188 C 538.285156 435.789062 538.121094 435.753906 537.945312 435.757812 C 537.773438 435.765625 537.609375 435.8125 537.460938 435.902344 C 537.3125 435.988281 537.191406 436.109375 537.105469 436.261719 C 537.015625 436.410156 536.972656 436.574219 536.96875 436.746094 C 536.792969 442.484375 536.449219 448.222656 535.859375 454.171875 L 535.015625 454.171875 C 529.414062 450.535156 525.929688 446.234375 524.9375 441.109375 C 524.441406 437.472656 524.113281 434.164062 523.789062 431.027344 C 523.464844 427.890625 520.480469 426.226562 515.011719 426.226562 C 510.554688 426.226562 502.292969 433.34375 490.375 447.726562 C 478.460938 462.109375 469.339844 469.394531 463.101562 469.394531 C 462.1875 469.355469 461.289062 469.210938 460.410156 468.964844 C 459.527344 468.714844 458.6875 468.367188 457.890625 467.917969 C 457.089844 467.472656 456.355469 466.9375 455.679688 466.320312 C 455.007812 465.699219 454.414062 465.007812 453.902344 464.25 C 452.566406 462.25 451.570312 460.089844 450.917969 457.773438 C 450.265625 455.457031 449.984375 453.09375 450.078125 450.691406 C 450.136719 447.316406 450.582031 443.996094 451.417969 440.726562 C 451.507812 440.328125 451.398438 440 451.089844 439.734375 C 450.78125 439.46875 450.4375 439.410156 450.058594 439.558594 C 448.53125 440.207031 446.9375 440.554688 445.277344 440.609375 C 437.628906 440.609375 432.175781 436.136719 429.117188 427.222656 C 429.03125 427.023438 428.894531 426.867188 428.707031 426.757812 C 428.523438 426.644531 428.320312 426.597656 428.105469 426.613281 C 427.890625 426.632812 427.699219 426.710938 427.53125 426.851562 C 427.367188 426.992188 427.257812 427.164062 427.203125 427.375 C 425.195312 438.5625 418.636719 444.28125 407.773438 444.28125 C 402.320312 444.28125 398.363281 441.300781 396.046875 435.523438 C 394.9375 433.089844 394.15625 430.558594 393.707031 427.921875 C 393.257812 425.285156 393.152344 422.636719 393.390625 419.972656 C 393.390625 419.476562 393.886719 416.339844 394.882812 410.871094 C 395.304688 408.121094 395.527344 405.351562 395.550781 402.570312 C 395.546875 402.335938 395.476562 402.128906 395.328125 401.949219 C 395.183594 401.765625 395 401.648438 394.773438 401.59375 C 394.546875 401.539062 394.328125 401.558594 394.117188 401.65625 C 393.90625 401.753906 393.746094 401.902344 393.636719 402.109375 C 391.460938 406.53125 389.890625 411.160156 388.933594 415.996094 C 387.9375 421.121094 387.019531 426.246094 386.121094 431.296875 C 384.457031 439.234375 381.492188 443.191406 377.363281 443.191406 C 374.550781 443.191406 371.890625 440.554688 369.578125 435.425781 C 367.199219 430.054688 366.046875 424.433594 366.117188 418.558594 C 366.144531 411.683594 366.691406 404.847656 367.761719 398.054688 L 369.082031 398.378906 C 368.558594 402.21875 368.285156 406.078125 368.257812 409.953125 C 368.257812 425.003906 371.566406 432.445312 377.820312 432.445312 C 379.960938 432.445312 381.78125 429.136719 383.425781 422.535156 C 386.734375 411.0625 388.570312 404.5 389.164062 402.855469 C 391.800781 395.816406 395.207031 391 399.300781 388.261719 C 399.636719 388.042969 399.984375 388.027344 400.339844 388.222656 C 400.695312 388.417969 400.871094 388.71875 400.867188 389.125 L 400.734375 395.683594 L 400.734375 395.800781 C 399.089844 407.828125 398.417969 415.097656 398.417969 417.5625 C 398.417969 427.316406 401.898438 432.117188 408.84375 432.117188 C 409.953125 432.117188 411.050781 431.996094 412.136719 431.761719 C 413.222656 431.527344 414.269531 431.183594 415.28125 430.726562 C 416.292969 430.269531 417.246094 429.710938 418.140625 429.054688 C 419.035156 428.394531 419.847656 427.652344 420.585938 426.820312 C 422.21875 425.195312 423.480469 423.316406 424.367188 421.191406 C 425.253906 419.0625 425.703125 416.847656 425.710938 414.542969 C 425.710938 414.542969 425.710938 414.390625 425.710938 414.3125 L 420.988281 388.089844 C 420.9375 387.90625 420.9375 387.722656 420.988281 387.535156 L 423.570312 380.917969 C 423.640625 380.714844 423.765625 380.550781 423.941406 380.429688 C 424.117188 380.304688 424.3125 380.242188 424.527344 380.242188 C 424.742188 380.242188 424.9375 380.304688 425.113281 380.429688 C 425.289062 380.550781 425.410156 380.714844 425.480469 380.917969 C 426.914062 383.464844 427.882812 386.171875 428.390625 389.046875 C 429.535156 397.136719 430.53125 405.226562 431.699219 413.300781 C 431.6875 413.335938 431.6875 413.375 431.699219 413.414062 C 434.335938 424.125 439.347656 429.402344 446.386719 429.402344 C 447.3125 429.46875 448.226562 429.410156 449.132812 429.222656 C 450.042969 429.035156 450.90625 428.730469 451.730469 428.304688 C 452.554688 427.878906 453.304688 427.351562 453.980469 426.71875 C 454.660156 426.085938 455.238281 425.375 455.71875 424.582031 C 455.882812 424.265625 455.882812 423.945312 455.71875 423.628906 C 453.484375 418.828125 451.398438 414.199219 449.160156 409.398438 C 445.890625 401.515625 443.917969 395.28125 443.554688 390.652344 C 443.574219 390.578125 443.574219 390.5 443.554688 390.425781 L 442.046875 386.199219 C 441.996094 386.007812 441.996094 385.816406 442.046875 385.625 L 443.613281 378.660156 C 443.65625 378.464844 443.75 378.292969 443.894531 378.152344 C 444.039062 378.007812 444.210938 377.921875 444.414062 377.886719 C 444.613281 377.847656 444.804688 377.871094 444.992188 377.957031 C 445.175781 378.039062 445.324219 378.164062 445.429688 378.335938 L 453.902344 391.457031 C 454.003906 391.621094 454.054688 391.800781 454.054688 391.992188 L 454.054688 394.515625 C 452.46875 393.488281 450.984375 392.328125 449.601562 391.035156 C 449.421875 392.03125 449.421875 392.527344 449.601562 392.527344 L 454.554688 403.449219 C 457.523438 409.441406 459.171875 415.78125 459.507812 422.460938 C 459.507812 430.339844 457.59375 435.5625 454.039062 438.277344 C 453.839844 438.429688 453.703125 438.628906 453.636719 438.871094 C 452.796875 442.058594 452.273438 445.296875 452.066406 448.585938 C 452.066406 454.859375 455.050781 458.015625 461.171875 458.015625 C 467.292969 458.015625 475.878906 450.726562 487.46875 436.019531 C 499.058594 421.3125 508.125 414.199219 514.742188 414.199219 C 517.609375 414.496094 520.191406 415.515625 522.488281 417.257812 C 522.65625 417.367188 522.84375 417.4375 523.042969 417.46875 C 523.242188 417.5 523.4375 417.488281 523.632812 417.433594 C 523.828125 417.378906 524 417.285156 524.15625 417.15625 C 524.308594 417.023438 524.429688 416.867188 524.515625 416.683594 L 526.523438 412.304688 C 526.574219 412.195312 526.636719 412.09375 526.710938 412 C 526.785156 411.910156 526.871094 411.828125 526.96875 411.757812 C 527.0625 411.6875 527.167969 411.628906 527.28125 411.585938 C 527.390625 411.542969 527.503906 411.515625 527.625 411.5 C 527.742188 411.488281 527.859375 411.488281 527.980469 411.507812 C 528.097656 411.523438 528.210938 411.554688 528.320312 411.601562 C 528.429688 411.648438 528.53125 411.710938 528.628906 411.785156 C 528.722656 411.855469 528.804688 411.941406 528.875 412.035156 C 573.765625 468.6875 662.929688 440.285156 717.917969 421.0625 C 718.117188 420.992188 718.324219 420.949219 718.539062 420.933594 C 718.753906 420.914062 718.964844 420.921875 719.175781 420.957031 C 719.386719 420.992188 719.589844 421.054688 719.785156 421.140625 C 719.980469 421.226562 720.160156 421.339844 720.328125 421.46875 C 720.496094 421.601562 720.644531 421.753906 720.773438 421.925781 C 720.90625 422.09375 721.011719 422.277344 721.09375 422.472656 C 721.175781 422.671875 721.234375 422.875 721.265625 423.085938 C 721.300781 423.296875 721.304688 423.511719 721.28125 423.722656 C 720.632812 431.164062 722.449219 435.789062 729.71875 434.644531 C 732.398438 434.28125 734.957031 433.503906 737.390625 432.316406 C 739.824219 431.132812 742.011719 429.59375 743.945312 427.699219 L 752.707031 419.417969 C 752.878906 419.589844 753.203125 419.589844 753.527344 419.761719 C 753.050781 420.753906 752.832031 421.800781 752.878906 422.898438 C 752.878906 429.019531 755.191406 432.15625 759.648438 432.15625 C 762.136719 432.15625 764.601562 430.246094 767.089844 425.863281 C 768.898438 422.394531 771.164062 419.253906 773.878906 416.4375 C 774.230469 416.40625 774.554688 416.296875 774.855469 416.109375 C 774.636719 417.148438 774.476562 418.191406 774.375 419.246094 C 772.214844 427.855469 775.027344 432.980469 785.125 433.132812 C 789.582031 433.132812 791.894531 431.488281 791.894531 428.007812 C 791.894531 423.875 788.757812 415.785156 782.332031 403.71875 C 775.464844 391.113281 771.527344 383.136719 770.855469 380.058594 C 770.800781 379.839844 770.722656 379.628906 770.628906 379.425781 L 767.757812 374.089844 C 767.464844 373.554688 767.375 372.988281 767.492188 372.390625 L 768.351562 368.105469 C 768.441406 367.640625 768.648438 367.234375 768.964844 366.882812 C 769.285156 366.53125 769.671875 366.289062 770.125 366.15625 C 770.578125 366.019531 771.035156 366.011719 771.492188 366.132812 C 771.949219 366.253906 772.34375 366.484375 772.675781 366.824219 L 782.140625 376.519531 C 782.617188 377.011719 782.851562 377.597656 782.847656 378.28125 L 782.847656 379.734375 L 776.902344 377.246094 L 776.902344 378.566406 C 780.382812 384.035156 783.691406 389.488281 787.152344 394.9375 C 793.769531 406.183594 797.078125 414.945312 797.078125 421.5625 Z M 797.019531 421.601562 " fill-opacity="1" fill-rule="evenodd"/></g><g clip-path="url(#3f6237f12c)"><path fill="#dd004b" d="M 56.851562 341.40625 C 54.816406 339.136719 52.332031 337.597656 49.390625 336.796875 C 49.195312 336.742188 49 336.746094 48.808594 336.8125 C 48.617188 336.878906 48.460938 336.996094 48.339844 337.160156 C 47.550781 338.035156 46.910156 339.011719 46.425781 340.085938 C 46.425781 342.722656 48.070312 344.0625 51.226562 344.0625 C 52.324219 344.097656 53.367188 343.878906 54.359375 343.410156 C 55.347656 342.941406 56.179688 342.273438 56.851562 341.40625 Z M 313.519531 424.257812 C 311.703125 421.597656 309.558594 420.949219 307.246094 422.34375 C 308.132812 423.046875 309.121094 423.5625 310.203125 423.894531 C 311.285156 424.222656 312.390625 424.34375 313.519531 424.257812 Z M 366.9375 448.71875 C 366.9375 447.574219 366.269531 447.074219 365.121094 447.074219 C 364.367188 447.0625 363.648438 447.226562 362.972656 447.5625 C 362.296875 447.902344 361.738281 448.375 361.296875 448.988281 C 361.726562 449.6875 362.269531 450.28125 362.933594 450.769531 C 363.59375 451.257812 364.324219 451.597656 365.121094 451.800781 C 365.570312 451.234375 365.953125 450.628906 366.269531 449.980469 C 366.609375 449.601562 366.832031 449.160156 366.9375 448.664062 Z M 372.234375 453.847656 C 370.816406 452.382812 369.488281 450.839844 368.257812 449.21875 L 367.109375 453.042969 C 368.144531 453.785156 369.296875 454.167969 370.570312 454.191406 C 371.144531 454.164062 371.699219 454.054688 372.234375 453.863281 Z M 519.390625 452.199219 C 517.476562 449.542969 515.429688 448.890625 513.117188 450.289062 C 514 451.003906 514.980469 451.523438 516.066406 451.855469 C 517.152344 452.1875 518.261719 452.300781 519.390625 452.199219 Z M 752.726562 392.507812 C 751.785156 391.386719 750.695312 390.441406 749.453125 389.667969 C 748.210938 388.898438 746.878906 388.339844 745.457031 387.996094 C 745.152344 387.90625 744.847656 387.910156 744.542969 388.007812 C 744.238281 388.105469 743.988281 388.277344 743.792969 388.53125 C 743.042969 389.292969 742.496094 390.179688 742.148438 391.191406 C 742.148438 393.65625 743.792969 395.015625 746.929688 395.015625 C 748.027344 395.070312 749.078125 394.882812 750.085938 394.449219 C 751.097656 394.015625 751.957031 393.382812 752.667969 392.546875 Z M 75.097656 452.773438 L 72.015625 457.976562 C 71.597656 458.640625 71.070312 459.199219 70.429688 459.652344 C 69.792969 460.105469 69.089844 460.421875 68.324219 460.597656 C 66.164062 461.152344 64.003906 461.667969 61.957031 462.28125 C 60.25 462.820312 58.644531 463.574219 57.136719 464.539062 C 56.722656 464.84375 56.363281 465.207031 56.058594 465.621094 C 55.75 466.03125 55.507812 466.480469 55.332031 466.964844 C 55.160156 467.453125 55.058594 467.949219 55.027344 468.464844 C 55 468.980469 55.046875 469.488281 55.167969 469.988281 C 56.570312 475.414062 57.476562 480.921875 57.882812 486.511719 C 58.046875 491.222656 57.832031 495.914062 57.234375 500.589844 C 57.035156 494.15625 56.152344 487.820312 54.59375 481.578125 C 53.253906 476.554688 52.371094 471.457031 51.933594 466.277344 C 51.933594 462.128906 53.253906 459.316406 56.238281 457.996094 C 59.222656 456.675781 61.976562 455.527344 64.5 454.363281 C 63.699219 454.035156 62.953125 453.75 62.261719 453.539062 C 61.503906 453.316406 60.738281 453.269531 59.957031 453.398438 C 59.179688 453.53125 58.46875 453.828125 57.824219 454.285156 L 55.570312 455.855469 L 55.78125 453.730469 C 55.859375 452.832031 56.152344 452.007812 56.660156 451.265625 C 57.460938 450.078125 58.304688 448.796875 59.050781 447.4375 C 59.390625 446.714844 59.882812 446.121094 60.527344 445.652344 C 61.171875 445.183594 61.890625 444.898438 62.683594 444.800781 C 65.234375 444.800781 69.371094 447.445312 75.097656 452.738281 Z M 34.414062 362.882812 C 32.503906 374.796875 25.484375 382.890625 13.242188 387.515625 L 12.917969 386.867188 C 18.828125 383.460938 22.617188 379.808594 24.546875 375.640625 C 24.695312 375.304688 24.664062 374.988281 24.445312 374.6875 C 24.230469 374.390625 23.9375 374.261719 23.570312 374.300781 C 20.726562 374.523438 18 375.207031 15.386719 376.347656 C 15.035156 376.535156 14.703125 376.507812 14.386719 376.269531 C 14.070312 376.035156 13.949219 375.722656 14.027344 375.335938 C 14.253906 373.667969 14.738281 372.082031 15.484375 370.574219 C 16.226562 369.066406 17.1875 367.714844 18.371094 366.515625 C 19.191406 365.695312 24.660156 364.375 34.414062 362.882812 Z M 80.316406 419.113281 L 75.574219 428.675781 C 75.503906 428.824219 75.40625 428.949219 75.28125 429.054688 C 75.160156 429.164062 75.019531 429.242188 74.867188 429.292969 C 74.710938 429.34375 74.550781 429.359375 74.390625 429.347656 C 74.226562 429.332031 74.074219 429.289062 73.929688 429.210938 L 64.652344 424.371094 C 64.515625 424.300781 64.394531 424.207031 64.292969 424.085938 C 64.191406 423.96875 64.113281 423.835938 64.066406 423.6875 C 64.015625 423.539062 63.996094 423.386719 64.003906 423.230469 C 64.011719 423.074219 64.050781 422.925781 64.117188 422.785156 L 67.425781 415.632812 C 67.496094 415.492188 67.53125 415.34375 67.542969 415.1875 C 67.550781 415.03125 67.53125 414.878906 67.480469 414.730469 C 67.429688 414.582031 67.355469 414.449219 67.253906 414.332031 C 67.152344 414.210938 67.03125 414.117188 66.890625 414.042969 L 58.554688 409.664062 C 58.410156 409.59375 58.289062 409.496094 58.1875 409.378906 C 58.082031 409.257812 58.003906 409.121094 57.957031 408.972656 C 57.90625 408.820312 57.886719 408.667969 57.894531 408.507812 C 57.90625 408.351562 57.945312 408.199219 58.015625 408.058594 L 62.089844 399.507812 C 62.164062 399.363281 62.265625 399.234375 62.386719 399.128906 C 62.511719 399.019531 62.652344 398.941406 62.808594 398.886719 C 62.964844 398.835938 63.125 398.816406 63.289062 398.828125 C 63.453125 398.839844 63.609375 398.882812 63.753906 398.953125 L 73.125 403.773438 C 73.269531 403.851562 73.394531 403.949219 73.496094 404.074219 C 73.601562 404.195312 73.675781 404.335938 73.726562 404.488281 C 73.777344 404.640625 73.796875 404.800781 73.785156 404.960938 C 73.773438 405.121094 73.734375 405.273438 73.664062 405.417969 L 70.238281 412.417969 C 70.164062 412.5625 70.121094 412.714844 70.105469 412.875 C 70.09375 413.035156 70.109375 413.195312 70.15625 413.347656 C 70.207031 413.503906 70.28125 413.640625 70.386719 413.765625 C 70.488281 413.890625 70.613281 413.988281 70.753906 414.0625 Z M 143.320312 418.273438 C 136.949219 433.972656 128.972656 442.371094 119.390625 443.328125 C 113.769531 443.882812 107.917969 440.191406 107.09375 434.585938 C 106.0625 428.199219 110.613281 421.597656 120.921875 415 C 120.980469 414.960938 121.03125 414.910156 121.0625 414.847656 C 121.097656 414.785156 121.113281 414.71875 121.113281 414.648438 C 121.113281 414.574219 121.097656 414.507812 121.0625 414.445312 C 121.03125 414.382812 120.980469 414.332031 120.921875 414.292969 C 120.480469 413.996094 120.015625 413.746094 119.53125 413.535156 C 119.042969 413.324219 118.539062 413.160156 118.019531 413.042969 C 117.503906 412.925781 116.980469 412.855469 116.449219 412.832031 C 115.917969 412.8125 115.390625 412.839844 114.863281 412.917969 C 114.339844 412.992188 113.824219 413.117188 113.320312 413.285156 C 112.820312 413.457031 112.335938 413.671875 111.871094 413.933594 C 111.410156 414.191406 110.972656 414.492188 110.566406 414.832031 C 110.160156 415.175781 109.785156 415.546875 109.445312 415.957031 L 109.445312 413.566406 C 109.4375 413.515625 109.4375 413.464844 109.445312 413.414062 C 111.359375 408.671875 114.246094 406.375 118.511719 406.375 C 123.78125 406.230469 128.917969 406.976562 133.929688 408.613281 C 133.996094 408.640625 134.050781 408.683594 134.097656 408.742188 C 134.144531 408.796875 134.171875 408.863281 134.183594 408.933594 C 134.195312 409.007812 134.1875 409.078125 134.164062 409.144531 C 134.136719 409.214844 134.097656 409.273438 134.042969 409.320312 L 126.679688 415.917969 L 126.546875 415.917969 C 122.710938 417.363281 119.261719 419.449219 116.199219 422.171875 C 112.238281 425.308594 110.25 427.910156 110.25 429.9375 C 110.25 434.070312 114.074219 436.230469 121.496094 436.230469 C 126.125 436.230469 130.925781 433.417969 135.878906 427.949219 C 138.363281 424.660156 140.832031 421.351562 143.320312 418.195312 Z M 58.878906 338.59375 C 58.878906 346.53125 56.5625 350.507812 51.609375 350.507812 C 47.132812 350.507812 44.820312 348.023438 44.820312 342.859375 C 44.960938 339.011719 45.789062 335.320312 47.308594 331.785156 C 48.789062 328.765625 50.117188 325.679688 51.285156 322.527344 C 52.066406 324.671875 52.335938 326.875 52.089844 329.144531 C 52.054688 329.339844 52.078125 329.527344 52.15625 329.710938 C 52.238281 329.890625 52.359375 330.035156 52.527344 330.140625 C 56.773438 332.703125 58.878906 335.550781 58.878906 338.554688 Z M 193.636719 442.273438 C 193.140625 448.71875 191 451.835938 187.039062 451.835938 C 183.082031 451.835938 180.921875 449.695312 180.921875 445.5625 C 180.921875 439.609375 183.898438 432.828125 189.851562 425.214844 L 190.503906 425.558594 C 187.191406 432.5 185.703125 437.800781 185.703125 441.089844 C 185.703125 443.898438 186.695312 445.390625 188.855469 445.390625 C 189.355469 445.417969 189.84375 445.351562 190.316406 445.191406 C 190.792969 445.035156 191.21875 444.792969 191.601562 444.472656 C 191.984375 444.152344 192.296875 443.773438 192.535156 443.332031 C 192.777344 442.894531 192.925781 442.425781 192.988281 441.929688 Z M 249.105469 470.964844 C 248.949219 477.082031 246.789062 480.21875 242.660156 480.21875 C 238.527344 480.21875 236.386719 478.308594 236.386719 474.121094 C 236.386719 468.152344 239.347656 461.382812 245.46875 453.769531 L 246.292969 454.09375 C 242.832031 461.054688 241.167969 466.183594 241.167969 469.394531 C 241.167969 472.1875 242.160156 473.679688 244.320312 473.679688 C 244.800781 473.726562 245.269531 473.683594 245.734375 473.550781 C 246.195312 473.417969 246.617188 473.207031 247 472.917969 C 247.382812 472.628906 247.699219 472.277344 247.949219 471.867188 C 248.203125 471.457031 248.367188 471.015625 248.453125 470.542969 Z M 155.386719 326.945312 C 155.253906 322.15625 154.46875 317.476562 153.035156 312.90625 C 152.957031 312.632812 152.773438 312.484375 152.488281 312.453125 C 152.207031 312.425781 152 312.539062 151.867188 312.792969 L 150.203125 315.988281 C 150.15625 316.140625 150.15625 316.292969 150.203125 316.445312 C 151.636719 322.070312 152.289062 324.804688 152.289062 324.957031 C 152.289062 326.871094 151.617188 327.769531 150.144531 327.769531 C 147.984375 327.769531 146.835938 326.277344 146.492188 323.3125 C 146.429688 320.324219 145.84375 317.441406 144.734375 314.667969 C 144.613281 314.445312 144.429688 314.335938 144.179688 314.335938 C 143.929688 314.335938 143.742188 314.445312 143.625 314.667969 L 142.019531 317.191406 C 141.945312 317.355469 141.945312 317.523438 142.019531 317.6875 C 142.730469 320.3125 143.203125 322.976562 143.433594 325.683594 C 143.433594 328.648438 142.285156 330.140625 139.972656 330.140625 C 137.199219 330.140625 136.144531 326.160156 136.929688 318.207031 C 136.953125 317.902344 136.824219 317.691406 136.542969 317.574219 C 136.261719 317.457031 136.019531 317.515625 135.820312 317.746094 C 133.816406 319.796875 132.226562 322.128906 131.058594 324.746094 C 131.050781 324.824219 131.050781 324.898438 131.058594 324.976562 L 131.058594 327.671875 C 132.054688 326.007812 132.972656 324.515625 133.871094 323.371094 L 133.871094 331.804688 C 134.195312 335.628906 135.78125 337.425781 138.652344 337.425781 C 139.304688 337.449219 139.941406 337.359375 140.5625 337.164062 C 141.183594 336.96875 141.753906 336.671875 142.277344 336.28125 C 142.796875 335.890625 143.238281 335.425781 143.601562 334.882812 C 143.964844 334.339844 144.226562 333.753906 144.390625 333.125 C 144.425781 333.023438 144.488281 332.933594 144.570312 332.863281 C 144.648438 332.792969 144.742188 332.742188 144.847656 332.71875 C 144.953125 332.691406 145.058594 332.695312 145.164062 332.722656 C 145.269531 332.75 145.363281 332.800781 145.441406 332.875 C 146.019531 333.546875 146.703125 334.089844 147.488281 334.503906 C 148.277344 334.917969 149.109375 335.171875 149.992188 335.265625 C 153.820312 335.265625 155.617188 332.453125 155.617188 327.003906 Z M 236.804688 399.222656 L 225.886719 393.484375 C 225.75 393.410156 225.605469 393.398438 225.457031 393.445312 C 225.308594 393.496094 225.203125 393.589844 225.140625 393.734375 L 220.339844 403.488281 C 220.269531 403.621094 220.261719 403.761719 220.308594 403.902344 C 220.359375 404.046875 220.449219 404.148438 220.585938 404.214844 L 231.183594 409.664062 C 231.320312 409.730469 231.460938 409.738281 231.605469 409.6875 C 231.75 409.640625 231.855469 409.550781 231.929688 409.417969 Z M 237.953125 357.144531 C 228.046875 358.636719 222.75 359.957031 221.753906 360.78125 C 219.617188 363.113281 218.253906 365.835938 217.660156 368.945312 C 217.597656 369.175781 217.605469 369.402344 217.675781 369.625 C 217.742188 369.851562 217.867188 370.042969 218.050781 370.195312 C 218.230469 370.347656 218.4375 370.441406 218.667969 370.476562 C 218.902344 370.507812 219.128906 370.476562 219.34375 370.378906 C 221.625 369.492188 223.980469 368.949219 226.421875 368.753906 C 226.914062 368.6875 227.308594 368.851562 227.605469 369.253906 C 227.90625 369.652344 227.949219 370.082031 227.738281 370.535156 C 226.449219 372.835938 224.839844 374.886719 222.914062 376.691406 C 220.988281 378.5 218.835938 379.96875 216.457031 381.109375 L 216.800781 381.78125 C 229.039062 377.152344 235.925781 369.042969 237.953125 357.144531 Z M 314.6875 422.171875 C 315.355469 426.132812 314.515625 428.273438 312.199219 428.617188 C 310.878906 428.945312 308.738281 428.121094 305.925781 426.132812 C 304.109375 429.117188 301.296875 433.074219 297.492188 438.199219 C 294.902344 441.128906 291.90625 443.554688 288.503906 445.480469 C 285.105469 447.410156 281.480469 448.730469 277.640625 449.445312 L 272.015625 450.613281 C 279.25 446.894531 286.035156 442.484375 292.367188 437.378906 C 297.800781 433.203125 302.207031 428.136719 305.582031 422.171875 C 307.246094 418.519531 308.738281 416.550781 309.886719 416.207031 C 312.199219 415.882812 313.710938 417.871094 314.6875 422.171875 Z M 374.207031 452.429688 C 374.207031 456.5625 372.886719 458.550781 370.246094 458.550781 C 368.066406 458.507812 366.027344 457.953125 364.125 456.886719 C 356.363281 470.621094 342.304688 477.238281 321.800781 476.566406 L 321.457031 476.566406 L 321.457031 476.070312 C 341.308594 471.441406 354.871094 464.664062 362.136719 455.738281 C 359.824219 454.746094 358.675781 453.425781 358.675781 451.4375 C 358.910156 449.726562 359.546875 448.183594 360.589844 446.808594 C 360.976562 446.070312 361.484375 445.429688 362.113281 444.890625 C 362.746094 444.347656 363.453125 443.941406 364.242188 443.671875 L 363.246094 441.335938 L 364.070312 440.191406 C 365.78125 440.9375 367.378906 441.875 368.871094 443 L 368.871094 443.824219 C 369.625 445.078125 370.503906 446.238281 371.507812 447.304688 C 372.238281 447.976562 372.828125 448.753906 373.28125 449.632812 C 373.734375 450.515625 374.023438 451.445312 374.148438 452.429688 Z M 237.304688 319.640625 C 237.304688 315.011719 236.136719 312.695312 233.996094 312.695312 C 229.691406 312.695312 226.058594 320.632812 223.570312 336.679688 C 220.433594 327.425781 216.953125 322.796875 212.992188 322.796875 C 209.683594 322.796875 208.039062 325.109375 208.039062 329.566406 C 208.039062 333.695312 209.855469 335.859375 213.664062 335.859375 C 215.574219 335.859375 216.953125 334.691406 217.621094 332.378906 C 220.152344 336.828125 222.300781 341.457031 224.066406 346.261719 C 224.890625 341.632812 225.558594 337.332031 226.382812 332.875 C 227.703125 326.753906 229.367188 323.617188 231.355469 323.617188 C 232.121094 323.730469 232.839844 323.984375 233.503906 324.386719 C 234.164062 324.789062 234.726562 325.304688 235.179688 325.933594 C 236.585938 324.070312 237.308594 321.972656 237.339844 319.640625 Z M 261.269531 327.289062 C 261.117188 323.320312 260.292969 319.496094 258.800781 315.816406 C 257.65625 312.460938 255.804688 309.554688 253.253906 307.09375 C 253.003906 306.867188 252.71875 306.8125 252.398438 306.929688 C 252.082031 307.046875 251.902344 307.273438 251.859375 307.609375 L 251.226562 314.265625 C 251.207031 314.519531 251.292969 314.738281 251.476562 314.914062 C 256.085938 319.351562 258.457031 325.398438 258.457031 333.160156 C 258.457031 337.472656 258.296875 341.441406 257.976562 345.078125 C 260.003906 339.292969 261.101562 333.339844 261.269531 327.214844 Z M 424.066406 455.011719 C 423.855469 457.4375 422.96875 459.585938 421.410156 461.457031 C 420.089844 459.964844 418.941406 459.144531 418.101562 459.144531 C 415.785156 459.144531 413.96875 462.109375 412.648438 468.226562 C 412.152344 472.703125 411.5 477.160156 410.734375 481.464844 C 408.90625 476.625 406.648438 472 403.964844 467.578125 C 403.640625 470.046875 402.472656 471.402344 400.332031 471.402344 C 396.355469 471.402344 394.363281 469.242188 394.363281 464.785156 C 394.363281 460.328125 396.277344 457.996094 399.835938 457.996094 C 403.390625 457.996094 407.101562 462.625 410.238281 471.902344 C 412.726562 455.855469 415.976562 447.917969 420.335938 447.917969 C 422.804688 447.917969 424.164062 450.230469 424.164062 455.03125 Z M 320.0625 342.074219 C 319.984375 336.734375 319.046875 331.550781 317.25 326.523438 L 315.050781 331.402344 C 314.992188 331.574219 314.992188 331.746094 315.050781 331.917969 C 316.332031 337.195312 316.960938 339.933594 316.960938 340.085938 C 316.960938 341.902344 316.140625 342.898438 314.648438 342.898438 C 312.507812 342.898438 311.511719 341.40625 311.167969 338.441406 C 311.09375 335.578125 310.589844 332.789062 309.65625 330.082031 C 309.53125 329.78125 309.308594 329.617188 308.984375 329.582031 C 308.660156 329.546875 308.40625 329.664062 308.222656 329.929688 L 306.613281 332.167969 C 306.457031 332.382812 306.414062 332.617188 306.480469 332.875 C 307.339844 335.492188 307.914062 338.167969 308.203125 340.90625 C 308.203125 343.71875 307.035156 345.210938 304.722656 345.210938 C 302.042969 345.210938 300.894531 341.386719 301.625 333.964844 C 301.636719 333.789062 301.597656 333.625 301.507812 333.472656 C 301.414062 333.324219 301.289062 333.210938 301.125 333.144531 C 300.964844 333.074219 300.796875 333.058594 300.625 333.097656 C 300.449219 333.136719 300.304688 333.222656 300.1875 333.351562 C 298.394531 335.304688 296.976562 337.5 295.921875 339.933594 C 295.90625 340.027344 295.90625 340.125 295.921875 340.21875 L 295.921875 342.550781 C 296.605469 341.085938 297.433594 339.710938 298.410156 338.421875 C 298.363281 341.347656 298.46875 344.265625 298.734375 347.179688 C 299.078125 350.644531 300.648438 352.460938 303.535156 352.460938 C 304.148438 352.449219 304.742188 352.339844 305.316406 352.136719 C 305.894531 351.9375 306.425781 351.648438 306.910156 351.277344 C 307.394531 350.90625 307.808594 350.46875 308.15625 349.964844 C 308.5 349.460938 308.757812 348.914062 308.929688 348.328125 C 308.976562 348.207031 309.050781 348.101562 309.148438 348.015625 C 309.25 347.929688 309.363281 347.871094 309.492188 347.839844 C 309.617188 347.8125 309.746094 347.8125 309.871094 347.84375 C 310 347.875 310.113281 347.933594 310.210938 348.023438 C 311.363281 349.253906 312.777344 349.960938 314.457031 350.144531 C 318.28125 350.144531 320.078125 347.507812 320.078125 342.054688 Z M 331.535156 304.53125 C 319.324219 307.351562 307.746094 311.8125 296.804688 317.917969 C 285.71875 323.488281 275.734375 330.601562 266.851562 339.261719 C 266.753906 339.359375 266.683594 339.472656 266.640625 339.605469 C 266.179688 340.980469 265.808594 342.375 265.53125 343.796875 C 265.511719 343.964844 265.539062 344.125 265.617188 344.28125 C 265.695312 344.433594 265.808594 344.546875 265.960938 344.628906 C 266.109375 344.710938 266.273438 344.742188 266.441406 344.722656 C 266.613281 344.703125 266.761719 344.636719 266.890625 344.523438 C 275.453125 336.8125 284.730469 330.09375 294.726562 324.363281 C 304.71875 318.628906 315.203125 314.015625 326.179688 310.515625 C 326.316406 310.472656 326.453125 310.464844 326.59375 310.492188 C 326.734375 310.519531 326.859375 310.578125 326.96875 310.667969 C 327.082031 310.761719 327.164062 310.871094 327.214844 311.003906 C 327.269531 311.136719 327.289062 311.273438 327.269531 311.414062 C 326.503906 314.988281 325.316406 318.417969 323.714844 321.707031 C 325.96875 319.265625 327.734375 316.511719 329.011719 313.441406 C 330.421875 310.628906 331.25 307.648438 331.496094 304.511719 Z M 520.367188 449.886719 C 521.1875 453.847656 520.367188 456.007812 517.878906 456.332031 C 516.558594 456.65625 514.570312 455.835938 511.605469 453.847656 C 509.789062 456.828125 506.976562 460.789062 503.171875 465.914062 C 500.613281 468.839844 497.648438 471.265625 494.277344 473.191406 C 490.90625 475.121094 487.308594 476.441406 483.492188 477.160156 L 477.867188 478.328125 C 485.019531 474.5625 491.746094 470.152344 498.046875 465.089844 C 504.492188 459.792969 508.949219 454.839844 511.433594 449.886719 C 513.097656 446.234375 514.570312 444.261719 515.566406 443.917969 C 517.878906 443.59375 519.542969 445.582031 520.367188 449.886719 Z M 432.386719 358.617188 C 432.386719 364.089844 430.472656 366.726562 426.765625 366.726562 C 425.101562 366.726562 423.453125 365.734375 421.3125 363.589844 C 420.316406 367.226562 418.328125 369.042969 415.34375 369.042969 C 412.535156 369.042969 410.890625 367.128906 410.5625 363.417969 L 410.5625 354.832031 C 409.894531 355.980469 408.898438 357.46875 407.753906 359.117188 L 407.753906 356.304688 C 409.285156 353.082031 411.378906 350.277344 414.027344 347.886719 C 412.878906 357.144531 413.871094 361.601562 416.835938 361.601562 C 419 361.601562 420.144531 360.109375 420.144531 357.144531 C 419.898438 354.410156 419.457031 351.707031 418.828125 349.035156 L 420.96875 345.210938 C 422.613281 348.1875 423.386719 351.375 423.28125 354.773438 C 423.628906 357.910156 424.945312 359.402344 426.9375 359.402344 C 428.410156 359.402344 429.25 358.40625 429.25 356.589844 C 429.25 356.417969 428.410156 353.433594 426.9375 347.832031 L 429.574219 343.03125 C 431.300781 348.066406 432.238281 353.242188 432.386719 358.5625 Z M 441.949219 347.695312 C 441.804688 353.792969 440.644531 359.691406 438.46875 365.386719 C 438.640625 361.90625 438.8125 357.949219 438.8125 353.644531 C 438.8125 345.707031 436.328125 339.414062 431.527344 334.960938 L 432.367188 326.523438 C 433.960938 327.789062 435.347656 329.253906 436.527344 330.910156 C 437.710938 332.570312 438.636719 334.359375 439.308594 336.277344 C 440.84375 339.953125 441.722656 343.777344 441.949219 347.753906 Z M 451.875 297.414062 C 438.402344 300.6875 425.558594 305.59375 413.335938 312.140625 C 397.808594 320.25 386.21875 327.84375 378.910156 335.285156 C 378.242188 337.941406 377.589844 340.085938 377.265625 342.074219 C 396.699219 324.632812 420.242188 311.816406 447.628906 303.039062 C 447.628906 305.523438 446.308594 309.332031 443.996094 314.628906 C 446.242188 312.179688 448.003906 309.417969 449.273438 306.347656 C 450.765625 303.550781 451.652344 300.574219 451.933594 297.414062 Z M 518.339844 366.535156 L 515.410156 371.796875 C 515.039062 372.484375 514.542969 373.0625 513.921875 373.539062 C 513.304688 374.015625 512.613281 374.347656 511.855469 374.53125 C 509.675781 375.066406 507.53125 375.640625 505.464844 376.117188 C 500.570312 377.917969 498.101562 379.945312 498.046875 381.988281 C 498.035156 382.039062 498.035156 382.09375 498.046875 382.144531 C 499.699219 388.132812 500.738281 394.226562 501.164062 400.425781 C 501.332031 405.175781 501.164062 409.914062 500.667969 414.636719 C 500.378906 408.179688 499.5 401.804688 498.027344 395.511719 C 496.679688 390.488281 495.742188 385.386719 495.214844 380.210938 C 495.214844 376.078125 496.707031 373.441406 499.671875 372.121094 C 502.636719 370.800781 505.292969 369.460938 507.953125 368.46875 C 506.417969 367.636719 504.777344 367.148438 503.039062 366.996094 C 502.933594 367 502.851562 367.042969 502.789062 367.128906 C 501.585938 368.121094 500.308594 369.015625 498.964844 369.808594 L 499.117188 366.613281 C 499.097656 366.542969 499.097656 366.472656 499.117188 366.402344 C 500.316406 364.859375 501.394531 363.234375 502.347656 361.523438 C 503.34375 359.707031 504.511719 358.886719 505.828125 358.886719 C 508.46875 358.886719 512.601562 361.371094 518.222656 366.652344 Z M 517.019531 329.335938 C 516.941406 331.554688 516.261719 333.570312 514.972656 335.378906 C 514.890625 335.472656 514.789062 335.523438 514.667969 335.523438 C 514.542969 335.523438 514.441406 335.472656 514.359375 335.378906 C 513.957031 334.871094 513.472656 334.460938 512.898438 334.148438 C 512.328125 333.839844 511.71875 333.65625 511.070312 333.601562 C 508.929688 333.601562 507.246094 336.566406 505.945312 342.515625 C 505.351562 346.605469 504.757812 350.453125 504.183594 354.277344 C 504.15625 354.464844 504.046875 354.570312 503.859375 354.59375 C 503.667969 354.621094 503.535156 354.546875 503.457031 354.371094 C 501.859375 350.355469 499.945312 346.492188 497.71875 342.78125 C 497.652344 342.636719 497.535156 342.566406 497.375 342.566406 C 497.214844 342.566406 497.101562 342.636719 497.03125 342.78125 C 496.933594 343.203125 496.761719 343.59375 496.523438 343.957031 C 496.28125 344.316406 495.988281 344.625 495.636719 344.878906 C 495.285156 345.132812 494.898438 345.320312 494.480469 345.4375 C 494.0625 345.550781 493.640625 345.59375 493.207031 345.554688 C 489.574219 345.554688 487.582031 343.414062 487.582031 339.261719 C 487.582031 334.632812 489.402344 332.320312 492.710938 332.320312 C 496.535156 332.320312 499.9375 336.488281 502.960938 344.65625 C 503.019531 344.832031 503.140625 344.917969 503.324219 344.917969 C 503.507812 344.917969 503.628906 344.832031 503.6875 344.65625 C 506.15625 329.738281 509.425781 322.125 513.558594 322.125 C 515.871094 322.125 517.019531 324.613281 517.019531 329.242188 Z M 714.015625 446.003906 C 714.015625 446.214844 713.707031 446.367188 713.171875 446.5 C 712.875 446.5625 712.621094 446.699219 712.402344 446.910156 C 712.183594 447.121094 712.039062 447.375 711.96875 447.667969 C 711.011719 451.628906 709.789062 453.617188 708.5625 453.617188 C 705.753906 453.617188 704.585938 451.703125 704.910156 447.992188 L 703 449.140625 C 700.835938 453.941406 698.695312 455.757812 697.03125 456.253906 C 690.757812 457.902344 686.953125 457.25 688.117188 451.128906 C 688.617188 448.320312 680.179688 453.042969 673.066406 457.078125 C 663.3125 462.203125 655.851562 465.683594 650.574219 467.828125 C 640.9375 471.511719 630.960938 473.386719 620.640625 473.449219 L 621.808594 474.617188 C 632.539062 474.671875 643.0625 473.234375 653.386719 470.3125 C 660.082031 468.035156 666.621094 465.375 673.007812 462.335938 C 679.128906 459.355469 686.070312 455.566406 685.746094 458.035156 C 685.078125 462.335938 687.890625 463.773438 694.007812 462.511719 C 696.496094 462.011719 699.289062 460.347656 702.101562 456.0625 C 702.261719 456.621094 702.507812 457.140625 702.835938 457.621094 C 703.164062 458.101562 703.558594 458.519531 704.019531 458.875 C 704.480469 459.234375 704.984375 459.507812 705.53125 459.703125 C 706.078125 459.898438 706.644531 460.007812 707.226562 460.023438 C 711.699219 460.023438 714.015625 455.394531 714.015625 446.136719 Z M 786.273438 456.753906 L 776.289062 451.550781 C 776.101562 451.453125 775.90625 451.394531 775.695312 451.378906 C 775.488281 451.359375 775.285156 451.386719 775.085938 451.453125 C 774.886719 451.519531 774.707031 451.621094 774.550781 451.761719 C 774.394531 451.902344 774.273438 452.066406 774.183594 452.257812 L 770.511719 460.214844 C 770.429688 460.394531 770.386719 460.582031 770.378906 460.78125 C 770.367188 460.976562 770.394531 461.167969 770.460938 461.355469 C 770.523438 461.542969 770.617188 461.710938 770.746094 461.859375 C 770.875 462.011719 771.027344 462.128906 771.203125 462.222656 L 779.730469 466.738281 C 779.914062 466.835938 780.113281 466.894531 780.320312 466.914062 C 780.527344 466.929688 780.730469 466.90625 780.929688 466.84375 C 781.128906 466.777344 781.308594 466.675781 781.464844 466.539062 C 781.621094 466.398438 781.746094 466.238281 781.835938 466.046875 Z M 754.695312 389.660156 C 754.695312 397.589844 752.214844 401.554688 747.253906 401.554688 C 742.78125 401.554688 740.464844 398.917969 740.464844 393.90625 C 740.636719 390.019531 741.574219 386.328125 743.277344 382.832031 C 745.765625 377.378906 747.101562 374.242188 747.253906 373.574219 C 747.992188 375.613281 748.203125 377.703125 747.886719 379.847656 C 747.820312 380.164062 747.851562 380.46875 747.984375 380.765625 C 748.113281 381.058594 748.316406 381.289062 748.59375 381.453125 C 752.574219 383.941406 754.695312 386.714844 754.695312 389.621094 Z M 759.648438 337.734375 C 759.648438 332.933594 758.5 330.617188 756.015625 330.617188 C 752.363281 330.617188 749.359375 336.929688 746.890625 349.304688 C 746.820312 349.628906 746.660156 349.90625 746.410156 350.128906 C 746.164062 350.351562 745.871094 350.480469 745.539062 350.515625 C 745.207031 350.550781 744.894531 350.484375 744.605469 350.316406 C 744.316406 350.148438 744.101562 349.914062 743.964844 349.609375 C 741.347656 343.871094 738.515625 340.871094 735.339844 340.871094 C 732.164062 340.871094 730.386719 343.03125 730.386719 347.660156 C 730.386719 351.960938 732.203125 354.105469 736.007812 354.105469 C 737.921875 354.105469 739.320312 352.9375 739.96875 350.46875 C 741.785156 353.78125 743.257812 356.726562 744.40625 359.25 C 744.539062 359.566406 744.757812 359.8125 745.058594 359.984375 C 745.359375 360.152344 745.679688 360.214844 746.023438 360.167969 C 746.363281 360.121094 746.65625 359.976562 746.902344 359.730469 C 747.144531 359.484375 747.289062 359.191406 747.332031 358.847656 C 747.753906 356.1875 748.117188 353.550781 748.402344 350.96875 C 749.722656 345 751.539062 342.035156 753.699219 342.035156 C 754.414062 342.097656 755.078125 342.316406 755.6875 342.695312 C 756.296875 343.070312 756.789062 343.566406 757.164062 344.179688 C 757.917969 343.269531 758.507812 342.261719 758.933594 341.160156 C 759.359375 340.054688 759.597656 338.914062 759.648438 337.734375 Z M 759.648438 337.734375 " fill-opacity="1" fill-rule="evenodd"/></g></svg>