<svg xmlns="http://www.w3.org/2000/svg" xmlns:xlink="http://www.w3.org/1999/xlink" width="1080" zoomAndPan="magnify" viewBox="0 0 810 809.999993" height="1080" preserveAspectRatio="xMidYMid meet" version="1.0"><defs><clipPath id="7a00ce440f"><path d="M 45.160156 303 L 98 303 L 98 326 L 45.160156 326 Z M 45.160156 303 " clip-rule="nonzero"/></clipPath></defs><path fill="#0058ca" d="M 210.3125 399.167969 C 210.3125 399.542969 210.3125 400.296875 209.9375 400.671875 C 208.808594 404.8125 206.175781 407.820312 203.164062 410.832031 C 198.273438 414.96875 193.007812 417.976562 186.988281 420.613281 C 177.207031 425.125 166.675781 428.136719 156.140625 428.511719 C 151.25 428.886719 146.359375 428.511719 141.84375 427.007812 C 140.339844 426.628906 138.835938 425.503906 136.953125 424.75 C 137.707031 428.886719 138.460938 433.027344 139.210938 437.539062 C 140.339844 437.164062 141.46875 436.789062 142.222656 436.410156 C 145.230469 435.660156 147.863281 434.90625 150.875 434.90625 C 155.011719 434.90625 158.023438 437.164062 158.773438 441.300781 C 159.527344 445.816406 159.148438 449.957031 157.644531 454.46875 C 155.765625 458.609375 151.625 460.488281 147.113281 459.359375 C 143.726562 458.230469 141.09375 455.972656 138.835938 453.71875 C 137.707031 452.589844 136.953125 451.460938 135.824219 450.332031 C 135.449219 449.578125 135.074219 449.578125 134.320312 449.957031 C 129.054688 452.589844 123.410156 454.46875 117.769531 456.351562 C 113.253906 457.855469 108.363281 458.984375 103.847656 458.984375 C 96.699219 459.359375 90.683594 456.726562 87.296875 448.828125 C 85.414062 444.6875 85.039062 440.175781 84.664062 435.660156 C 84.285156 428.886719 83.535156 421.738281 82.78125 414.96875 C 82.40625 408.949219 82.027344 402.929688 81.652344 397.289062 C 80.902344 387.507812 80.523438 377.726562 79.773438 367.945312 C 79.019531 358.164062 77.515625 348.757812 75.257812 339.351562 C 75.257812 338.976562 75.257812 338.601562 75.257812 338.222656 C 76.011719 334.835938 77.136719 331.074219 78.265625 327.3125 C 78.644531 327.691406 79.019531 328.441406 79.394531 329.195312 C 80.523438 332.582031 81.277344 335.589844 82.027344 338.976562 C 84.664062 351.390625 86.167969 364.179688 86.917969 376.972656 C 87.671875 387.507812 88.046875 398.039062 88.800781 408.949219 C 89.554688 417.976562 89.929688 426.628906 91.058594 435.660156 C 91.808594 443.558594 97.078125 447.320312 104.601562 447.320312 C 111.75 447.320312 118.519531 445.816406 125.292969 443.558594 C 127.550781 442.808594 129.804688 442.054688 132.441406 441.300781 C 133.191406 440.925781 133.191406 440.925781 133.191406 440.175781 C 132.441406 433.027344 131.6875 425.503906 131.3125 418.355469 C 130.558594 408.949219 130.183594 399.542969 129.429688 390.515625 C 129.054688 382.617188 128.300781 374.714844 127.925781 366.816406 C 127.171875 358.164062 126.796875 349.886719 126.042969 341.234375 C 125.667969 335.214844 125.292969 329.195312 124.539062 323.175781 C 124.539062 322.800781 124.539062 322.800781 124.539062 322.421875 C 126.042969 318.660156 127.550781 314.898438 129.429688 311.136719 C 129.429688 311.890625 129.804688 312.265625 129.804688 313.019531 C 130.183594 317.53125 130.933594 321.671875 131.3125 326.183594 C 131.6875 330.699219 132.441406 335.214844 132.816406 339.726562 C 133.191406 344.996094 133.191406 349.886719 133.570312 355.152344 C 133.945312 362.300781 134.320312 369.824219 134.695312 376.972656 C 135.074219 382.992188 135.074219 389.386719 135.824219 395.40625 C 136.203125 399.542969 136.578125 403.683594 137.332031 407.820312 C 138.082031 412.710938 140.714844 416.097656 145.605469 417.601562 C 147.863281 418.355469 150.121094 418.730469 152.378906 418.730469 C 152.003906 417.976562 152.003906 417.601562 151.625 416.851562 C 148.617188 410.832031 146.734375 404.433594 146.359375 397.664062 C 146.359375 392.019531 147.113281 386.753906 149.367188 381.488281 C 152.378906 375.089844 157.644531 370.578125 164.417969 368.320312 C 171.941406 365.6875 179.464844 365.308594 186.988281 368.695312 C 192.257812 371.328125 196.394531 375.089844 199.78125 380.359375 C 199.78125 380.359375 199.78125 380.734375 200.15625 380.734375 C 200.15625 380.734375 200.15625 381.109375 200.15625 381.109375 C 200.15625 381.109375 200.15625 381.109375 199.78125 381.109375 C 197.148438 378.851562 194.136719 377.347656 190.75 376.597656 C 185.859375 375.46875 180.96875 374.714844 175.703125 375.089844 C 169.683594 375.84375 164.417969 378.101562 159.527344 381.488281 C 156.894531 383.367188 154.257812 385.25 151.625 387.128906 C 150.875 387.882812 150.496094 388.257812 150.875 389.386719 C 152.003906 396.535156 154.636719 402.929688 159.527344 408.574219 C 164.417969 414.214844 170.8125 416.472656 178.335938 414.96875 C 184.355469 413.839844 190.375 411.582031 196.019531 408.949219 C 199.78125 407.070312 203.164062 405.1875 206.925781 403.304688 C 207.679688 400.671875 208.808594 399.542969 210.3125 399.167969 Z M 143.351562 444.3125 C 143.351562 444.3125 143.351562 444.6875 143.351562 444.6875 C 145.605469 447.320312 148.617188 449.203125 152.378906 449.957031 C 152.378906 448.074219 152.378906 446.191406 152.003906 444.3125 C 151.625 443.9375 150.875 443.183594 150.496094 443.183594 C 147.863281 443.558594 145.605469 443.9375 143.351562 444.3125 Z M 143.351562 444.3125 " fill-opacity="1" fill-rule="nonzero"/><path fill="#0058ca" d="M 207.679688 412.710938 C 208.433594 413.085938 208.433594 413.464844 208.054688 414.214844 C 206.175781 419.484375 203.917969 424.75 202.414062 430.015625 C 199.78125 438.292969 199.402344 446.945312 201.285156 455.222656 C 202.789062 461.992188 206.175781 467.636719 212.195312 471.023438 C 216.707031 473.65625 221.597656 474.785156 226.488281 474.785156 C 231.757812 474.785156 237.023438 473.65625 241.914062 472.152344 C 254.328125 468.390625 265.992188 462.746094 277.652344 457.101562 C 282.167969 454.847656 286.683594 452.589844 290.445312 449.203125 C 291.574219 448.449219 292.324219 447.320312 293.453125 446.570312 C 294.207031 446.191406 293.828125 445.816406 293.453125 445.066406 C 291.574219 443.183594 289.316406 442.054688 286.683594 441.679688 C 282.921875 440.925781 279.160156 440.175781 275.394531 439.421875 C 270.128906 438.292969 264.863281 436.789062 259.597656 434.90625 C 256.585938 433.777344 256.210938 433.402344 257.339844 430.015625 C 258.089844 428.136719 258.46875 425.878906 259.21875 423.996094 C 259.597656 423.246094 259.972656 422.867188 260.722656 422.867188 C 264.488281 422.867188 268.25 422.867188 272.011719 422.867188 C 276.902344 422.867188 281.792969 421.363281 285.929688 418.355469 C 285.929688 417.976562 285.554688 417.601562 285.554688 417.226562 C 281.039062 407.820312 276.902344 397.664062 273.515625 387.128906 C 273.515625 386.753906 273.515625 386.378906 273.515625 386 C 274.644531 383.742188 276.148438 381.863281 277.277344 379.605469 C 277.277344 379.605469 277.652344 379.230469 277.652344 379.230469 C 281.039062 384.871094 284.800781 389.761719 287.433594 395.78125 C 287.433594 395.78125 287.058594 396.160156 287.058594 396.160156 C 286.304688 395.40625 285.175781 395.03125 284.425781 394.277344 C 284.425781 394.652344 284.800781 395.03125 284.800781 395.40625 C 286.304688 398.792969 287.8125 402.179688 289.316406 405.5625 C 290.445312 408.195312 290.820312 410.453125 290.066406 413.464844 C 288.9375 416.851562 288.1875 420.613281 287.058594 423.996094 C 286.304688 426.628906 284.425781 429.265625 281.792969 430.769531 C 282.167969 430.769531 282.542969 431.144531 282.921875 431.144531 C 286.683594 432.273438 290.445312 433.027344 293.828125 434.15625 C 297.96875 435.285156 299.472656 437.917969 299.472656 442.054688 C 299.097656 448.074219 296.839844 452.964844 293.078125 457.480469 C 288.9375 461.992188 284.425781 465.753906 279.160156 468.765625 C 268.625 474.785156 257.339844 480.050781 245.300781 483.4375 C 238.90625 485.316406 232.507812 486.445312 225.738281 486.070312 C 221.976562 485.695312 217.835938 485.316406 214.074219 483.8125 C 207.679688 481.554688 203.542969 477.417969 200.53125 471.773438 C 197.144531 464.628906 196.019531 457.101562 196.394531 449.203125 C 196.769531 439.421875 199.78125 430.769531 203.542969 422.117188 C 204.671875 419.484375 205.800781 416.847656 206.925781 414.59375 C 207.304688 413.839844 207.679688 413.464844 207.679688 412.710938 Z M 207.679688 412.710938 " fill-opacity="1" fill-rule="nonzero"/><path fill="#0058ca" d="M 310.382812 428.136719 C 310.382812 428.511719 310.007812 429.265625 310.007812 429.640625 C 307.75 435.660156 306.996094 441.679688 307.375 448.074219 C 307.375 449.957031 307.75 451.835938 308.5 453.339844 C 309.628906 457.101562 313.390625 460.488281 319.410156 458.984375 C 323.171875 458.230469 326.558594 456.726562 329.570312 455.222656 C 336.339844 451.460938 342.734375 447.320312 349.132812 443.183594 C 355.527344 439.046875 361.921875 434.90625 367.566406 430.394531 C 368.695312 429.265625 369.824219 428.511719 370.953125 427.382812 C 372.078125 426.253906 372.078125 425.503906 371.328125 424.375 C 370.199219 423.246094 369.445312 421.742188 367.941406 420.988281 C 365.308594 419.105469 362.296875 417.226562 359.664062 415.722656 C 348.753906 410.078125 339.726562 402.554688 331.828125 393.523438 C 330.699219 392.398438 329.570312 391.644531 328.0625 390.515625 C 327.6875 390.140625 327.3125 389.761719 327.3125 389.761719 C 327.6875 386.753906 328.441406 384.121094 328.816406 381.109375 C 333.332031 382.992188 342.734375 389.011719 343.113281 390.515625 C 341.609375 390.140625 340.101562 390.140625 338.222656 389.761719 C 339.351562 390.890625 340.101562 392.019531 341.230469 392.773438 C 347.25 398.792969 354.023438 403.304688 361.546875 407.070312 C 364.179688 408.574219 366.8125 410.453125 369.445312 411.960938 C 370.199219 412.335938 370.574219 413.085938 370.953125 413.464844 C 372.457031 414.96875 373.585938 416.851562 373.585938 419.105469 C 373.585938 422.492188 373.585938 426.253906 373.585938 429.640625 C 373.585938 433.027344 371.703125 435.660156 369.824219 437.917969 C 367.1875 441.300781 363.804688 443.9375 360.417969 446.570312 C 350.261719 454.09375 340.101562 460.863281 328.816406 466.507812 C 326.183594 468.011719 323.171875 469.140625 320.164062 469.894531 C 314.898438 471.398438 310.757812 469.140625 308.5 463.875 C 306.246094 458.984375 305.492188 453.71875 305.117188 448.449219 C 304.738281 443.558594 305.117188 438.667969 306.621094 434.15625 C 307.375 431.898438 308.5 430.015625 309.628906 428.136719 C 310.007812 428.511719 310.007812 428.511719 310.382812 428.136719 Z M 310.382812 428.136719 " fill-opacity="1" fill-rule="nonzero"/><path fill="#0058ca" d="M 403.304688 400.671875 C 403.679688 401.050781 404.058594 401.425781 404.058594 401.425781 C 406.3125 404.058594 408.570312 407.070312 410.453125 409.703125 C 410.828125 410.078125 410.828125 410.832031 410.828125 411.207031 C 410.453125 412.710938 410.074219 414.214844 409.699219 415.34375 C 409.699219 416.097656 409.699219 416.472656 410.074219 417.226562 C 412.332031 420.988281 414.964844 425.125 417.222656 428.886719 C 420.234375 433.777344 420.609375 439.046875 419.105469 444.6875 C 418.351562 447.699219 417.601562 450.707031 416.472656 453.339844 C 416.09375 454.09375 415.34375 454.847656 414.964844 455.597656 C 411.957031 458.984375 408.570312 461.617188 404.808594 464.25 C 397.285156 469.519531 389.007812 473.28125 380.730469 477.042969 C 372.078125 481.179688 363.425781 484.941406 354.398438 487.574219 C 349.882812 489.082031 345.746094 489.457031 341.230469 489.832031 C 334.082031 490.585938 327.3125 490.960938 320.164062 491.714844 C 317.15625 492.089844 313.769531 492.089844 310.757812 492.089844 C 312.265625 491.714844 313.769531 490.960938 315.273438 490.585938 C 345.371094 481.554688 374.335938 469.894531 402.550781 455.597656 C 407.066406 453.339844 411.203125 450.332031 414.964844 446.570312 C 414.964844 446.570312 415.34375 446.191406 415.34375 446.191406 C 417.222656 443.9375 417.601562 442.808594 416.09375 440.175781 C 415.34375 439.046875 414.964844 437.539062 413.839844 436.789062 C 408.949219 430.015625 405.5625 422.492188 402.550781 414.96875 C 401.800781 413.085938 401.046875 411.582031 400.671875 409.703125 C 400.671875 409.324219 400.671875 408.574219 400.671875 408.195312 C 401.421875 405.941406 402.175781 403.683594 402.929688 401.425781 C 402.550781 401.425781 402.929688 401.050781 403.304688 400.671875 Z M 403.304688 400.671875 " fill-opacity="1" fill-rule="nonzero"/><path fill="#0058ca" d="M 233.261719 499.988281 C 231.757812 501.871094 229.875 504.128906 228.371094 506.007812 C 227.996094 506.761719 227.617188 506.761719 226.867188 506.007812 C 224.609375 504.128906 222.351562 502.246094 219.71875 500.367188 C 218.589844 499.613281 218.589844 499.613281 219.34375 498.484375 C 220.847656 496.605469 222.351562 494.722656 223.855469 492.84375 C 224.234375 492.089844 224.984375 492.089844 225.363281 492.84375 C 227.617188 494.722656 230.253906 496.980469 232.507812 498.863281 C 234.015625 496.980469 235.519531 495.097656 237.398438 493.21875 C 238.152344 492.089844 238.152344 492.089844 239.28125 493.21875 C 241.539062 495.097656 243.796875 496.980469 246.050781 498.863281 C 246.804688 499.613281 246.804688 499.988281 246.050781 500.742188 C 244.546875 502.625 243.042969 504.503906 241.539062 506.386719 C 240.785156 507.515625 240.785156 507.515625 239.65625 506.761719 C 237.777344 504.128906 235.519531 502.246094 233.261719 499.988281 Z M 233.261719 499.988281 " fill-opacity="1" fill-rule="nonzero"/><path fill="#0058ca" d="M 407.066406 386.378906 C 406.691406 386.753906 406.691406 387.128906 406.691406 387.128906 C 405.183594 389.011719 403.304688 391.269531 401.800781 393.148438 C 401.421875 393.902344 401.046875 393.902344 400.292969 393.148438 C 398.039062 391.269531 395.402344 389.011719 393.148438 387.128906 C 392.394531 386.753906 392.394531 386 393.148438 385.625 C 394.652344 383.742188 396.53125 381.488281 398.039062 379.605469 C 398.414062 378.851562 398.789062 378.851562 399.542969 379.605469 C 401.800781 381.488281 404.433594 383.742188 406.691406 385.625 C 406.691406 386 407.066406 386.378906 407.066406 386.378906 Z M 407.066406 386.378906 " fill-opacity="1" fill-rule="nonzero"/><path fill="#0058ca" d="M 275.394531 363.054688 C 275.019531 363.429688 275.019531 363.804688 275.019531 363.804688 C 273.515625 365.6875 271.632812 367.945312 270.128906 369.824219 C 269.753906 370.578125 269.378906 370.199219 268.625 369.824219 C 266.367188 367.945312 263.734375 365.6875 261.476562 363.804688 C 260.722656 363.429688 260.722656 362.675781 261.101562 362.300781 C 262.605469 360.417969 264.488281 358.539062 265.992188 356.28125 C 266.367188 355.527344 266.742188 355.527344 267.496094 356.28125 C 269.753906 358.164062 272.386719 360.042969 274.644531 362.300781 C 275.019531 362.675781 275.394531 363.054688 275.394531 363.054688 Z M 275.394531 363.054688 " fill-opacity="1" fill-rule="nonzero"/><path fill="#0058ca" d="M 639.183594 326.183594 C 639.558594 326.5625 639.933594 327.3125 640.3125 327.691406 C 641.4375 331.074219 642.566406 334.460938 643.320312 338.222656 C 645.578125 349.507812 647.082031 360.796875 647.835938 372.082031 C 648.585938 382.238281 648.964844 392.019531 649.714844 402.179688 C 650.46875 412.710938 651.21875 423.246094 651.972656 434.15625 C 652.726562 441.679688 657.617188 445.816406 665.140625 445.816406 C 670.78125 445.816406 676.050781 444.6875 681.691406 443.558594 C 685.078125 442.808594 688.839844 441.679688 691.851562 439.796875 C 692.980469 439.046875 694.109375 438.292969 695.234375 437.164062 C 695.988281 436.789062 695.988281 436.035156 695.988281 435.285156 C 695.613281 432.648438 694.484375 430.769531 691.851562 430.769531 C 688.089844 430.394531 684.328125 430.015625 680.1875 429.640625 C 679.058594 429.640625 677.929688 429.640625 676.425781 429.265625 C 671.910156 428.511719 669.277344 425.878906 669.277344 421.363281 C 669.277344 417.601562 670.03125 414.214844 671.535156 410.832031 C 675.296875 404.058594 684.328125 402.554688 689.96875 407.820312 C 691.097656 408.949219 692.226562 410.453125 693.355469 411.960938 C 696.363281 417.226562 699 422.867188 700.503906 428.886719 C 701.632812 433.402344 700.878906 437.539062 698.246094 441.679688 C 695.988281 445.066406 692.980469 447.699219 689.59375 449.957031 C 683.199219 453.71875 676.050781 456.726562 668.527344 457.855469 C 665.515625 458.230469 662.507812 458.230469 659.875 457.480469 C 654.984375 456.351562 651.597656 453.339844 649.339844 449.203125 C 649.339844 448.828125 648.964844 448.828125 648.964844 448.449219 C 648.964844 448.828125 648.585938 448.828125 648.585938 449.203125 C 647.082031 455.222656 642.945312 460.113281 638.054688 463.875 C 632.785156 468.390625 626.765625 471.398438 620.371094 474.03125 C 611.71875 477.417969 603.066406 480.425781 594.039062 482.308594 C 588.394531 483.4375 582.375 484.191406 576.355469 483.4375 C 563.191406 482.308594 553.785156 474.410156 550.398438 461.617188 C 548.894531 455.597656 548.519531 449.957031 549.269531 443.9375 C 550.398438 433.777344 553.785156 424.75 557.546875 415.34375 C 558.300781 413.839844 559.425781 412.710938 560.179688 411.207031 C 560.554688 410.832031 560.933594 410.832031 561.308594 410.832031 C 561.308594 411.207031 561.308594 411.582031 561.308594 411.960938 C 559.050781 418.355469 556.792969 424.375 554.535156 430.769531 C 553.410156 434.53125 552.65625 438.292969 552.28125 442.054688 C 551.527344 447.320312 552.65625 452.589844 555.664062 457.101562 C 559.050781 462.746094 563.1875 467.261719 569.207031 470.269531 C 573.722656 472.152344 578.613281 472.902344 583.503906 472.902344 C 591.40625 472.902344 598.929688 471.023438 606.453125 469.140625 C 619.996094 465.378906 632.410156 459.359375 644.074219 451.835938 C 644.074219 451.835938 644.449219 451.460938 644.449219 451.460938 C 646.328125 450.332031 647.082031 448.449219 646.707031 446.191406 C 645.953125 439.796875 645.578125 433.402344 644.824219 427.007812 C 644.074219 419.484375 643.695312 412.335938 642.945312 404.8125 C 642.566406 396.910156 641.816406 389.011719 641.4375 380.734375 C 640.6875 367.566406 639.558594 354.398438 636.546875 341.234375 C 635.796875 338.601562 635.796875 335.964844 636.546875 333.332031 C 637.675781 330.699219 638.054688 328.441406 639.183594 326.183594 C 638.804688 326.183594 638.804688 326.183594 639.183594 326.183594 Z M 686.960938 419.859375 C 683.949219 415.34375 676.050781 414.214844 673.417969 417.601562 C 677.554688 419.484375 682.445312 419.105469 686.960938 419.859375 Z M 686.960938 419.859375 " fill-opacity="1" fill-rule="nonzero"/><path fill="#0058ca" d="M 648.210938 489.832031 C 651.597656 488.703125 654.605469 487.574219 657.992188 486.824219 C 679.058594 479.675781 699.375 471.398438 718.9375 460.863281 C 730.976562 454.46875 742.636719 446.945312 753.546875 438.667969 C 755.429688 437.539062 756.933594 436.035156 758.4375 434.53125 C 759.191406 433.777344 759.566406 433.027344 759.191406 431.898438 C 758.4375 428.511719 756.558594 427.007812 752.792969 427.007812 C 750.160156 427.007812 747.902344 427.382812 745.269531 427.382812 C 743.011719 427.382812 740.378906 427.382812 738.125 427.007812 C 733.984375 426.253906 730.222656 423.246094 731.726562 416.851562 C 732.855469 413.085938 734.359375 409.324219 737.371094 406.691406 C 740.757812 403.304688 745.648438 401.800781 750.539062 405.1875 C 757.683594 410.078125 762.574219 416.851562 764.082031 425.503906 C 764.832031 430.769531 764.457031 436.035156 761.824219 440.925781 C 760.695312 442.808594 759.191406 444.6875 757.683594 446.191406 C 753.546875 450.332031 748.65625 453.71875 743.765625 456.726562 C 731.351562 464.628906 718.183594 472.152344 705.015625 478.921875 C 698.621094 482.308594 691.472656 484.191406 684.328125 485.695312 C 674.546875 487.953125 664.765625 489.082031 654.605469 490.207031 C 652.726562 490.207031 650.84375 490.585938 648.964844 490.585938 C 648.585938 490.585938 648.210938 490.585938 647.835938 490.207031 C 647.835938 490.207031 648.210938 489.832031 648.210938 489.832031 Z M 750.539062 417.226562 C 748.28125 414.59375 746.023438 412.335938 742.261719 412.335938 C 740.378906 412.335938 738.875 412.710938 736.996094 413.464844 C 736.242188 413.839844 736.242188 414.59375 736.996094 414.96875 C 737.746094 415.34375 738.5 416.097656 739.628906 416.097656 C 742.261719 416.472656 744.894531 416.851562 747.527344 416.851562 C 748.65625 417.226562 749.410156 417.226562 750.539062 417.226562 Z M 750.539062 417.226562 " fill-opacity="1" fill-rule="nonzero"/><path fill="#0058ca" d="M 438.292969 379.230469 C 437.914062 380.734375 437.539062 381.863281 436.785156 383.367188 C 435.28125 386.753906 434.152344 390.515625 433.777344 393.902344 C 433.023438 400.296875 433.777344 406.316406 436.410156 411.960938 C 439.042969 416.851562 443.183594 420.234375 448.449219 422.117188 C 456.726562 425.125 465 425.878906 473.652344 425.503906 C 487.195312 424.75 499.988281 421.363281 512.402344 416.851562 C 520.304688 414.214844 527.828125 411.207031 535.726562 408.574219 C 538.359375 407.820312 541.371094 407.070312 544.003906 406.691406 C 544.753906 406.316406 545.882812 406.691406 547.011719 406.691406 C 549.644531 407.070312 551.152344 409.324219 550.023438 411.960938 C 548.894531 414.59375 547.765625 416.851562 546.261719 419.105469 C 540.242188 428.511719 533.09375 437.164062 525.570312 445.441406 C 522.9375 448.449219 520.304688 451.082031 517.667969 454.09375 C 517.292969 454.46875 516.917969 454.46875 516.539062 454.847656 C 516.917969 454.09375 517.292969 453.339844 517.667969 452.589844 C 521.808594 446.945312 525.570312 441.679688 529.707031 436.035156 C 533.09375 431.519531 536.101562 427.382812 539.488281 422.867188 C 540.242188 421.742188 540.992188 420.234375 541.746094 418.730469 C 542.5 417.226562 541.746094 416.472656 540.242188 416.851562 C 537.230469 417.601562 534.222656 418.355469 531.589844 419.105469 C 526.320312 420.988281 521.054688 423.246094 515.789062 425.125 C 506.007812 428.511719 496.601562 431.898438 486.445312 433.777344 C 478.921875 435.285156 471.019531 436.035156 463.496094 435.660156 C 457.101562 435.285156 450.707031 434.53125 445.0625 431.519531 C 435.65625 427.007812 430.390625 419.484375 429.636719 409.324219 C 428.886719 398.792969 431.519531 389.011719 437.539062 380.359375 C 437.164062 379.980469 437.539062 379.605469 438.292969 379.230469 C 437.914062 379.230469 438.292969 379.230469 438.292969 379.230469 Z M 438.292969 379.230469 " fill-opacity="1" fill-rule="nonzero"/><path fill="#0058ca" d="M 489.078125 478.921875 C 491.710938 478.171875 494.34375 477.417969 496.976562 476.289062 C 522.558594 468.390625 547.765625 458.609375 571.84375 446.570312 C 577.109375 443.9375 582.375 441.679688 587.265625 437.917969 C 589.148438 436.410156 591.027344 434.90625 592.910156 433.027344 C 593.285156 432.648438 593.660156 432.273438 594.039062 431.898438 C 595.167969 430.394531 595.542969 428.886719 594.789062 427.382812 C 593.660156 425.125 592.15625 422.867188 591.027344 420.988281 C 586.890625 414.96875 583.878906 408.574219 581.246094 401.800781 C 580.496094 399.921875 579.742188 397.664062 578.988281 395.78125 C 578.988281 395.40625 578.613281 395.03125 578.988281 394.652344 C 579.742188 392.019531 580.871094 389.386719 581.625 387.128906 C 581.625 386.753906 582 386.753906 582 386.378906 C 582.375 386.753906 582.753906 387.128906 582.753906 387.128906 C 585.007812 389.761719 587.265625 392.773438 589.523438 395.40625 C 589.898438 395.78125 589.898438 396.160156 589.898438 396.535156 C 589.523438 398.039062 589.148438 399.542969 588.769531 401.050781 C 588.769531 401.425781 588.769531 402.179688 589.148438 402.554688 C 591.40625 406.316406 593.660156 410.078125 595.917969 413.839844 C 599.304688 419.105469 599.679688 424.75 598.175781 430.394531 C 597.425781 433.402344 596.671875 436.410156 595.542969 439.046875 C 594.789062 440.550781 593.660156 441.679688 592.535156 442.808594 C 589.898438 445.816406 586.890625 448.074219 583.503906 450.332031 C 576.355469 455.222656 568.457031 458.984375 560.554688 462.746094 C 551.527344 466.882812 542.5 471.023438 533.09375 473.65625 C 528.578125 475.160156 524.066406 475.535156 519.550781 475.914062 C 513.15625 476.289062 507.136719 477.042969 500.742188 477.792969 C 496.976562 478.546875 492.839844 478.921875 489.078125 478.921875 Z M 489.078125 478.921875 " fill-opacity="1" fill-rule="nonzero"/><path fill="#0058ca" d="M 673.039062 381.863281 C 674.546875 379.980469 676.425781 378.101562 677.929688 376.21875 C 678.683594 375.46875 679.058594 375.46875 679.8125 376.21875 C 682.070312 378.101562 684.328125 379.980469 686.582031 381.863281 C 687.335938 382.238281 687.335938 382.992188 686.582031 383.367188 C 685.078125 385.25 683.574219 387.128906 682.070312 389.386719 C 681.691406 390.140625 680.941406 390.140625 680.5625 389.386719 C 678.308594 387.507812 675.671875 385.25 673.039062 383.367188 C 671.535156 385.25 670.03125 387.128906 668.527344 389.011719 C 667.398438 390.140625 667.398438 390.140625 666.269531 389.386719 C 664.011719 387.507812 661.753906 385.625 659.496094 383.742188 C 658.746094 382.992188 658.746094 382.617188 659.496094 381.863281 C 661 379.980469 662.507812 378.101562 664.011719 376.21875 C 664.386719 375.46875 665.140625 375.46875 665.515625 376.21875 C 668.148438 377.726562 670.78125 379.605469 673.039062 381.863281 Z M 673.039062 381.863281 " fill-opacity="1" fill-rule="nonzero"/><path fill="#0058ca" d="M 493.214844 452.210938 C 492.839844 452.589844 492.839844 452.964844 492.839844 452.964844 C 491.335938 454.847656 489.453125 457.101562 487.949219 458.984375 C 487.574219 459.359375 487.195312 459.738281 486.820312 458.984375 C 484.5625 457.101562 481.929688 454.847656 479.296875 452.964844 C 478.542969 452.589844 478.542969 452.210938 479.296875 451.460938 C 480.800781 449.578125 482.683594 447.320312 484.1875 445.441406 C 484.5625 444.6875 484.941406 444.6875 485.691406 445.441406 C 487.949219 447.320312 490.582031 449.203125 492.839844 451.460938 C 492.839844 451.835938 493.214844 452.210938 493.214844 452.210938 Z M 493.214844 452.210938 " fill-opacity="1" fill-rule="nonzero"/><path fill="#0058ca" d="M 104.601562 309.257812 C 104.226562 310.386719 100.839844 313.394531 100.464844 313.394531 C 94.445312 315.652344 88.425781 317.910156 82.40625 320.167969 C 75.632812 322.800781 72.625 323.929688 65.851562 326.183594 C 61.714844 327.691406 57.574219 329.570312 53.0625 331.074219 C 52.683594 331.074219 52.308594 330.699219 52.683594 330.699219 C 53.0625 329.570312 53.4375 328.441406 54.191406 327.3125 C 54.191406 326.5625 55.320312 326.5625 56.070312 326.183594 C 63.59375 323.550781 67.355469 322.046875 75.257812 319.414062 C 82.78125 316.78125 90.683594 313.769531 98.207031 311.136719 C 100.085938 310.386719 104.601562 308.503906 104.601562 309.257812 Z M 104.601562 309.257812 " fill-opacity="1" fill-rule="nonzero"/><g clip-path="url(#7a00ce440f)"><path fill="#0058ca" d="M 97.453125 303.238281 C 97.078125 304.367188 93.691406 307.375 93.316406 307.75 C 87.296875 310.007812 81.277344 312.265625 75.257812 314.523438 C 68.484375 317.15625 65.476562 318.285156 58.703125 320.917969 C 54.191406 322.421875 50.050781 323.929688 45.914062 325.808594 C 45.539062 325.808594 45.160156 325.433594 45.539062 325.433594 C 45.914062 324.304688 46.289062 323.175781 47.042969 322.046875 C 47.417969 321.671875 48.546875 321.292969 49.300781 320.917969 C 56.824219 317.910156 60.585938 316.78125 68.484375 313.769531 C 76.011719 310.761719 83.535156 308.128906 91.433594 305.117188 C 92.9375 304.367188 97.453125 302.484375 97.453125 303.238281 Z M 97.453125 303.238281 " fill-opacity="1" fill-rule="nonzero"/></g><path fill="#0058ca" d="M 750.914062 368.320312 C 750.914062 369.449219 748.65625 373.585938 748.28125 373.585938 C 743.011719 377.347656 738.121094 381.488281 733.230469 385.25 C 727.589844 389.761719 724.957031 391.644531 719.3125 396.160156 C 715.925781 398.792969 712.164062 401.800781 708.78125 404.8125 C 708.402344 405.1875 708.027344 404.8125 708.027344 404.433594 C 708.027344 402.929688 708.027344 401.800781 708.402344 400.671875 C 708.402344 399.921875 709.53125 399.542969 709.90625 399.167969 C 716.304688 394.277344 719.6875 391.644531 726.085938 386.753906 C 732.480469 381.863281 738.875 376.597656 745.269531 371.707031 C 746.777344 370.578125 750.914062 367.566406 750.914062 368.320312 Z M 750.914062 368.320312 " fill-opacity="1" fill-rule="nonzero"/><path fill="#0058ca" d="M 504.878906 388.257812 C 504.503906 389.386719 501.117188 392.398438 500.742188 392.773438 C 494.722656 395.03125 488.703125 397.289062 482.683594 399.542969 C 475.910156 402.179688 472.902344 403.304688 466.128906 405.5625 C 461.992188 407.070312 457.855469 408.949219 453.339844 410.453125 C 452.964844 410.453125 452.585938 410.078125 452.964844 410.078125 C 453.339844 408.949219 453.714844 407.820312 454.46875 406.691406 C 454.84375 406.316406 455.972656 405.941406 456.726562 405.5625 C 464.25 402.929688 468.011719 401.425781 475.910156 398.792969 C 483.433594 396.160156 491.335938 393.148438 498.859375 390.515625 C 500.363281 389.386719 505.253906 387.507812 504.878906 388.257812 Z M 504.878906 388.257812 " fill-opacity="1" fill-rule="nonzero"/><path fill="#0058ca" d="M 449.199219 455.597656 C 449.199219 457.101562 445.4375 461.242188 445.0625 461.617188 C 438.667969 465.378906 432.273438 469.140625 425.5 472.527344 C 417.976562 476.664062 414.964844 478.546875 407.441406 482.683594 C 402.929688 485.316406 398.414062 487.953125 393.898438 490.960938 C 393.523438 491.335938 393.148438 490.960938 393.148438 490.585938 C 393.523438 489.082031 393.898438 487.574219 394.277344 486.070312 C 394.652344 485.316406 395.78125 484.941406 396.53125 484.566406 C 404.808594 479.675781 408.949219 477.792969 417.222656 472.902344 C 425.5 468.390625 433.777344 463.5 442.054688 458.984375 C 443.933594 457.855469 449.199219 454.847656 449.199219 455.597656 Z M 449.199219 455.597656 " fill-opacity="1" fill-rule="nonzero"/><path fill="#0058ca" d="M 227.617188 455.597656 C 227.242188 454.09375 226.867188 451.835938 226.488281 451.082031 C 225.363281 446.945312 223.480469 443.558594 221.597656 439.421875 C 221.222656 437.917969 220.472656 438.667969 220.09375 438.667969 C 217.835938 439.796875 216.332031 438.667969 215.203125 437.539062 C 214.074219 436.410156 213.324219 434.90625 214.828125 432.273438 C 214.828125 431.898438 215.203125 431.519531 215.203125 431.144531 C 216.707031 428.511719 218.964844 428.136719 221.597656 430.394531 C 224.984375 433.402344 226.867188 437.539062 227.617188 442.054688 C 227.996094 443.183594 228.371094 444.6875 228.746094 445.816406 C 229.5 442.808594 229.875 439.796875 230.628906 437.164062 C 231.378906 434.15625 232.132812 431.144531 234.015625 428.136719 C 235.519531 425.878906 237.398438 425.125 239.28125 426.253906 C 241.914062 427.382812 243.042969 432.273438 241.160156 434.53125 C 240.785156 435.285156 240.035156 435.285156 239.28125 434.53125 C 238.90625 434.15625 238.90625 433.777344 238.527344 433.402344 C 236.648438 431.519531 234.765625 431.519531 234.015625 434.15625 C 232.886719 437.917969 232.132812 441.679688 231.003906 445.441406 C 230.628906 447.320312 229.125 452.589844 228.371094 455.597656 C 229.125 456.726562 227.996094 456.351562 227.617188 455.597656 Z M 227.617188 455.597656 " fill-opacity="1" fill-rule="nonzero"/><path fill="#0058ca" d="M 715.175781 434.53125 C 714.421875 436.410156 713.671875 438.292969 712.917969 440.175781 C 713.292969 440.550781 714.046875 441.300781 714.796875 441.679688 C 717.433594 443.9375 718.183594 446.945312 717.808594 450.332031 C 717.433594 453.339844 715.550781 455.222656 712.917969 455.972656 C 710.285156 456.726562 708.027344 455.972656 708.027344 452.589844 C 708.027344 449.203125 709.15625 445.816406 710.285156 442.429688 C 711.035156 440.175781 711.789062 438.292969 712.917969 436.410156 C 713.292969 435.285156 713.671875 434.15625 715.175781 434.53125 Z M 711.789062 444.6875 C 711.789062 444.6875 711.414062 444.6875 711.414062 444.6875 C 711.035156 446.570312 710.285156 448.074219 710.285156 449.957031 C 709.90625 451.082031 710.660156 451.460938 711.789062 451.460938 C 713.667969 451.460938 715.175781 450.707031 716.304688 449.578125 C 717.054688 448.828125 717.054688 448.449219 716.304688 447.699219 C 714.421875 446.945312 713.292969 445.816406 711.789062 444.6875 Z M 711.789062 444.6875 " fill-opacity="1" fill-rule="nonzero"/><path fill="#0058ca" d="M 654.230469 476.289062 C 653.855469 479.300781 653.476562 481.933594 650.84375 483.8125 C 649.714844 484.941406 647.457031 484.191406 646.707031 483.0625 C 643.695312 478.921875 646.707031 469.519531 648.964844 464.25 C 649.714844 462.371094 650.84375 461.242188 650.46875 462.371094 C 649.714844 465.378906 648.585938 468.390625 648.210938 471.398438 C 647.835938 473.28125 647.835938 475.160156 648.585938 477.042969 C 648.964844 478.546875 651.21875 479.675781 652.347656 477.792969 C 653.101562 477.042969 653.476562 476.289062 654.230469 475.535156 C 653.855469 475.535156 654.230469 475.914062 654.230469 476.289062 Z M 654.230469 476.289062 " fill-opacity="1" fill-rule="nonzero"/><path fill="#0058ca" d="M 326.558594 360.417969 C 326.558594 361.171875 325.429688 363.429688 323.171875 366.4375 C 320.539062 369.824219 318.28125 372.457031 316.027344 373.960938 C 314.519531 375.089844 310.007812 376.597656 301.730469 378.476562 C 300.976562 378.851562 300.226562 378.851562 299.847656 378.851562 C 299.847656 378.851562 300.601562 378.476562 301.355469 377.726562 C 302.484375 376.972656 305.117188 375.46875 310.007812 372.835938 C 314.519531 370.578125 317.15625 369.070312 317.90625 368.320312 C 317.90625 368.320312 318.28125 367.945312 318.28125 367.945312 C 318.28125 366.816406 314.144531 366.4375 306.246094 366.4375 C 306.246094 366.4375 304.738281 366.4375 301.730469 366.816406 C 301.355469 366.816406 300.976562 366.816406 300.976562 366.816406 C 300.226562 366.816406 299.472656 366.816406 299.472656 366.4375 C 299.472656 366.0625 299.472656 365.6875 299.847656 365.308594 L 302.859375 360.417969 C 303.609375 358.914062 305.117188 358.164062 307.375 357.785156 C 308.125 357.785156 310.007812 357.410156 313.015625 357.410156 C 322.046875 357.410156 326.558594 358.539062 326.558594 360.417969 Z M 326.558594 360.417969 " fill-opacity="1" fill-rule="nonzero"/><path fill="#0058ca" d="M 606.453125 355.527344 C 597.800781 358.539062 577.484375 366.4375 568.832031 369.449219 C 560.179688 372.457031 556.042969 373.960938 547.390625 377.347656 C 546.636719 377.726562 545.507812 377.726562 545.132812 378.476562 C 544.378906 379.605469 544.003906 381.109375 543.25 382.238281 C 543.25 382.617188 543.628906 382.992188 544.003906 382.992188 C 548.894531 381.109375 553.785156 379.230469 558.300781 377.347656 C 566.199219 374.339844 569.207031 373.210938 577.109375 370.578125 C 583.878906 367.945312 602.316406 361.171875 609.085938 358.539062 C 609.460938 358.539062 613.601562 355.152344 613.601562 353.648438 C 613.601562 352.894531 608.332031 354.777344 606.453125 355.527344 Z M 606.453125 355.527344 " fill-opacity="1" fill-rule="nonzero"/><path fill="#0058ca" d="M 179.464844 457.480469 C 179.089844 460.113281 178.710938 462.746094 176.457031 464.628906 C 175.328125 465.753906 173.445312 465.003906 172.316406 463.875 C 169.683594 460.113281 172.316406 451.082031 174.574219 446.570312 C 175.328125 445.066406 176.457031 443.9375 176.078125 445.066406 C 175.328125 448.074219 174.199219 450.707031 173.820312 453.71875 C 173.445312 455.222656 173.445312 457.101562 173.820312 458.984375 C 174.199219 460.488281 176.078125 461.617188 177.585938 459.738281 C 177.960938 458.984375 178.710938 458.230469 179.089844 457.480469 C 179.464844 457.101562 179.464844 457.480469 179.464844 457.480469 Z M 179.464844 457.480469 " fill-opacity="1" fill-rule="nonzero"/><path fill="#0058ca" d="M 109.492188 390.515625 C 110.242188 387.882812 110.621094 385.25 111.371094 382.238281 C 111.75 379.980469 112.5 378.101562 114.382812 376.597656 C 115.132812 375.84375 116.640625 375.84375 117.769531 376.597656 C 119.273438 378.101562 119.648438 379.605469 118.898438 381.863281 C 118.898438 382.238281 118.519531 382.617188 118.144531 382.617188 C 117.769531 382.617188 117.390625 382.238281 117.390625 382.238281 C 117.015625 381.863281 116.640625 381.488281 116.640625 381.109375 C 115.886719 380.359375 114.757812 380.734375 114.382812 381.488281 C 113.628906 383.742188 112.878906 385.625 112.125 387.882812 C 111.371094 390.515625 110.996094 393.148438 110.242188 395.78125 C 110.242188 395.78125 110.996094 396.160156 111.371094 396.160156 C 113.253906 396.910156 115.132812 398.414062 116.261719 400.296875 C 117.015625 401.050781 117.015625 401.800781 116.640625 402.554688 C 116.261719 402.929688 116.261719 403.683594 115.886719 404.058594 C 115.511719 405.1875 114.757812 405.5625 114.007812 405.5625 C 111.75 406.316406 109.492188 407.070312 107.609375 407.820312 C 106.105469 408.195312 106.105469 408.949219 106.480469 410.453125 C 107.234375 414.214844 108.363281 417.976562 108.738281 421.742188 C 109.117188 425.125 109.117188 428.136719 109.117188 431.519531 C 109.117188 433.027344 108.738281 434.15625 108.363281 435.660156 C 108.363281 435.660156 108.363281 436.035156 107.988281 436.410156 C 107.988281 434.90625 107.609375 433.402344 107.609375 431.898438 C 107.609375 427.382812 106.859375 423.246094 106.105469 418.730469 C 105.351562 415.722656 104.976562 412.335938 104.601562 409.324219 C 104.226562 406.316406 106.105469 403.304688 109.492188 402.554688 C 109.867188 402.554688 110.242188 402.179688 110.621094 402.179688 C 109.492188 400.671875 108.363281 400.671875 107.234375 401.800781 C 106.859375 402.179688 106.480469 402.554688 105.730469 402.929688 C 106.105469 400.296875 106.105469 398.039062 107.988281 396.160156 C 108.363281 395.78125 108.363281 395.40625 108.363281 395.03125 C 107.234375 392.019531 106.105469 389.011719 104.976562 386 C 104.976562 385.625 104.601562 385.25 104.226562 384.871094 C 103.847656 384.496094 103.472656 384.496094 103.097656 384.496094 C 101.589844 385.25 100.460938 384.496094 99.710938 383.742188 C 98.207031 382.238281 98.207031 381.863281 99.335938 379.980469 C 99.710938 379.605469 99.710938 379.230469 100.085938 378.851562 C 100.839844 377.347656 101.96875 377.347656 103.472656 378.476562 C 105.351562 379.605469 106.480469 381.109375 106.859375 382.992188 C 107.988281 385.625 108.363281 387.882812 109.492188 390.515625 C 109.117188 390.515625 109.117188 390.515625 109.492188 390.515625 Z M 109.492188 390.515625 " fill-opacity="1" fill-rule="nonzero"/><path fill="#0058ca" d="M 722.699219 369.070312 C 723.074219 370.199219 723.074219 371.328125 722.699219 372.457031 C 722.324219 373.585938 721.570312 374.339844 721.195312 373.960938 C 720.441406 373.585938 718.5625 372.835938 715.550781 371.328125 C 712.917969 375.84375 708.027344 381.488281 700.503906 388.632812 C 692.980469 395.78125 687.710938 399.167969 685.078125 399.167969 C 684.703125 399.167969 684.328125 398.792969 683.949219 398.414062 C 688.839844 394.277344 693.730469 390.140625 698.246094 386 C 706.144531 378.851562 711.035156 373.585938 712.542969 370.199219 C 711.035156 369.070312 709.53125 368.320312 707.652344 367.191406 C 706.144531 366.0625 705.394531 364.179688 705.394531 361.925781 C 705.394531 360.796875 706.144531 358.914062 708.027344 356.28125 C 709.90625 353.648438 711.414062 352.519531 712.917969 352.519531 C 716.679688 352.519531 718.9375 354.777344 718.9375 359.667969 C 718.9375 361.546875 718.558594 363.429688 717.808594 365.6875 C 719.3125 366.4375 721.195312 367.566406 722.699219 369.070312 Z M 715.550781 364.933594 C 715.550781 364.179688 715.925781 363.804688 715.925781 363.054688 C 715.925781 360.042969 715.175781 358.539062 713.292969 358.539062 C 711.789062 358.539062 711.035156 359.289062 710.660156 360.417969 C 710.285156 361.546875 711.789062 363.054688 715.550781 364.933594 Z M 715.550781 364.933594 " fill-opacity="1" fill-rule="nonzero"/><path fill="#0058ca" d="M 465.378906 390.515625 C 465 390.890625 465 391.269531 464.625 391.644531 C 463.871094 393.148438 462.367188 393.902344 460.488281 394.277344 C 457.855469 394.652344 455.972656 393.523438 455.21875 390.890625 C 454.46875 388.257812 454.089844 385.625 455.972656 382.992188 C 456.347656 382.617188 456.347656 382.617188 456.726562 381.863281 C 456.726562 382.617188 456.726562 382.992188 456.726562 383.742188 C 457.101562 385.25 457.101562 386.753906 457.476562 388.632812 C 457.851562 390.515625 458.980469 390.890625 460.863281 390.515625 C 462.742188 390.140625 463.871094 388.632812 463.496094 387.128906 C 463.121094 384.496094 463.496094 382.238281 465 379.980469 C 465 380.734375 465.378906 381.109375 465.378906 381.488281 C 465.753906 382.992188 465.753906 384.871094 466.128906 386.378906 C 466.882812 388.632812 468.386719 389.386719 470.269531 387.882812 C 472.902344 386.378906 474.03125 383.742188 470.644531 380.734375 C 470.644531 382.617188 470.644531 384.121094 470.644531 385.625 C 469.515625 384.121094 469.140625 377.726562 469.890625 375.46875 C 470.644531 376.21875 471.019531 376.597656 471.398438 376.972656 C 472.148438 378.851562 473.652344 380.734375 473.652344 382.992188 C 474.03125 386 473.277344 388.632812 471.019531 390.890625 C 470.644531 392.398438 467.632812 392.019531 465.378906 390.515625 Z M 465.378906 390.515625 " fill-opacity="1" fill-rule="nonzero"/></svg>